<svg xmlns="http://www.w3.org/2000/svg" xmlns:xlink="http://www.w3.org/1999/xlink" width="113" height="113" viewBox="0 0 113 113">
  <defs>
    <filter id="Trazado_982547" x="0" y="0" width="113" height="113" filterUnits="userSpaceOnUse">
      <feOffset dy="3" input="SourceAlpha"/>
      <feGaussianBlur stdDeviation="3" result="blur"/>
      <feFlood flood-opacity="0.161"/>
      <feComposite operator="in" in2="blur"/>
      <feComposite in="SourceGraphic"/>
    </filter>
  </defs>
  <g id="Grupo_1201785" data-name="Grupo 1201785" transform="translate(-586.5 -2641.325)">
    <g id="Grupo_1201681" data-name="Grupo 1201681" transform="translate(315.5 1726.825)">
      <g id="Grupo_1201330" data-name="Grupo 1201330" transform="translate(280 920.5)">
        <g id="Grupo_1172010" data-name="Grupo 1172010">
          <g id="Grupo_1171046" data-name="Grupo 1171046">
            <g id="Grupo_1148525" data-name="Grupo 1148525">
              <g transform="matrix(1, 0, 0, 1, -9, -6)" filter="url(#Trazado_982547)">
                <g id="Trazado_982547-2" data-name="Trazado 982547" transform="translate(9 6)" fill="#fdfbec">
                  <path d="M 47.5 93.5 C 41.28937149047852 93.5 35.26533508300781 92.28397369384766 29.59518623352051 89.88570404052734 C 24.11771965026855 87.56893157958984 19.19813346862793 84.25196075439453 14.97309303283691 80.02691650390625 C 10.74804019927979 75.80186462402344 7.431066513061523 70.88229370117188 5.114293098449707 65.40481567382812 C 2.716026782989502 59.73468017578125 1.5 53.71062850952148 1.5 47.5 C 1.5 41.28937149047852 2.716026782989502 35.26533508300781 5.114293098449707 29.59518623352051 C 7.431066513061523 24.11771965026855 10.74804019927979 19.19813346862793 14.97309303283691 14.97309303283691 C 19.19813346862793 10.74804019927979 24.11771965026855 7.431066513061523 29.59518623352051 5.114293098449707 C 35.26533508300781 2.716026782989502 41.28937149047852 1.5 47.5 1.5 C 53.71062850952148 1.5 59.73468017578125 2.716026782989502 65.40481567382812 5.114293098449707 C 70.88229370117188 7.431066513061523 75.80186462402344 10.74804019927979 80.02691650390625 14.97309303283691 C 84.25196075439453 19.19813346862793 87.56893157958984 24.11771965026855 89.88570404052734 29.59518623352051 C 92.28397369384766 35.26533508300781 93.5 41.28937149047852 93.5 47.5 C 93.5 53.71062850952148 92.28397369384766 59.73468017578125 89.88570404052734 65.40481567382812 C 87.56893157958984 70.88229370117188 84.25196075439453 75.80186462402344 80.02691650390625 80.02691650390625 C 75.80186462402344 84.25196075439453 70.88229370117188 87.56893157958984 65.40481567382812 89.88570404052734 C 59.73468017578125 92.28397369384766 53.71062850952148 93.5 47.5 93.5 Z" stroke="none"/>
                  <path d="M 47.5 3 C 41.49121475219727 3 35.66376876831055 4.176155090332031 30.17950439453125 6.495796203613281 C 24.88084411621094 8.736953735351562 20.12152099609375 11.94598388671875 16.03375244140625 16.03375244140625 C 11.94598388671875 20.12152099609375 8.736953735351562 24.88084411621094 6.495796203613281 30.17950439453125 C 4.176155090332031 35.66376876831055 3 41.49121475219727 3 47.5 C 3 53.50878524780273 4.176155090332031 59.33623123168945 6.495796203613281 64.82049560546875 C 8.736953735351562 70.11915588378906 11.94598388671875 74.87847900390625 16.03375244140625 78.96624755859375 C 20.12152099609375 83.05401611328125 24.88084411621094 86.26304626464844 30.17950439453125 88.50419616699219 C 35.66376876831055 90.82384490966797 41.49121475219727 92 47.5 92 C 53.50878524780273 92 59.33623123168945 90.82384490966797 64.82049560546875 88.50419616699219 C 70.11915588378906 86.26304626464844 74.87847900390625 83.05401611328125 78.96624755859375 78.96624755859375 C 83.05401611328125 74.87847900390625 86.26304626464844 70.11915588378906 88.50419616699219 64.82049560546875 C 90.82384490966797 59.33623123168945 92 53.50878524780273 92 47.5 C 92 41.49121475219727 90.82384490966797 35.66376876831055 88.50419616699219 30.17950439453125 C 86.26304626464844 24.88084411621094 83.05401611328125 20.12152099609375 78.96624755859375 16.03375244140625 C 74.87847900390625 11.94598388671875 70.11915588378906 8.736953735351562 64.82049560546875 6.495796203613281 C 59.33623123168945 4.176155090332031 53.50878524780273 3 47.5 3 M 47.5 0 C 73.7335205078125 0 95 21.2664794921875 95 47.5 C 95 73.7335205078125 73.7335205078125 95 47.5 95 C 21.2664794921875 95 0 73.7335205078125 0 47.5 C 0 21.2664794921875 21.2664794921875 0 47.5 0 Z" stroke="none" fill="#83793c"/>
                </g>
              </g>
            </g>
          </g>
        </g>
      </g>
    </g>
    <g id="society_6193871" transform="translate(611.364 2655.948)">
      <g id="Grupo_1201789" data-name="Grupo 1201789" transform="translate(4.218 23.274)">
        <path id="Trazado_1045784" data-name="Trazado 1045784" d="M15.609,79.118c-.866-.285-1.543-.47-2-2.421a.618.618,0,0,0-1.2,0c-.443,1.908-1.061,2.112-2,2.421a.618.618,0,0,0,0,1.173c1.553.513,1.729,1.272,2,2.421a.618.618,0,0,0,1.2,0c.443-1.908,1.094-2.123,2-2.421A.619.619,0,0,0,15.609,79.118Z" transform="translate(-9.991 -76.22)"/>
        <path id="Trazado_1045785" data-name="Trazado 1045785" d="M20.825,87.769a3.063,3.063,0,0,0-.913,1.032,3.2,3.2,0,0,0-.969-1.022A3.051,3.051,0,0,0,19.9,86.7,3.159,3.159,0,0,0,20.825,87.769Z" transform="translate(-16.863 -84.265)" fill="#f0c020"/>
      </g>
      <g id="Grupo_1201790" data-name="Grupo 1201790" transform="translate(53.01 23.274)">
        <path id="Trazado_1045786" data-name="Trazado 1045786" d="M225.624,79.118c-.866-.285-1.543-.47-2-2.421a.618.618,0,0,0-1.2,0c-.443,1.908-1.061,2.112-2,2.421a.618.618,0,0,0,0,1.173c1.553.513,1.729,1.272,2,2.421a.618.618,0,0,0,1.2,0c.443-1.908,1.094-2.123,2-2.421A.619.619,0,0,0,225.624,79.118Z" transform="translate(-220.006 -76.22)"/>
        <path id="Trazado_1045787" data-name="Trazado 1045787" d="M230.84,87.769a3.063,3.063,0,0,0-.913,1.032,3.2,3.2,0,0,0-.969-1.022,3.051,3.051,0,0,0,.957-1.078A3.159,3.159,0,0,0,230.84,87.769Z" transform="translate(-226.878 -84.265)" fill="#f0c020"/>
      </g>
      <g id="Grupo_1201791" data-name="Grupo 1201791" transform="translate(13.731 7.832)">
        <path id="Trazado_1045788" data-name="Trazado 1045788" d="M86.744,27.654A17.9,17.9,0,1,0,66.428,45.391l2.412,3.776,2.412-3.776A17.9,17.9,0,0,0,86.744,27.654Z" transform="translate(-50.937 -9.75)" fill="#efefef"/>
      </g>
      <path id="Trazado_1045789" data-name="Trazado 1045789" d="M19.26,162.915v5.954H4.97V146.278a2.294,2.294,0,0,1,2.089-2.314A2.24,2.24,0,0,1,9.452,146.2v7.495a3.24,3.24,0,0,0-.588,1.863v2.4a3.253,3.253,0,0,0,6.254,1.255h.441A3.7,3.7,0,0,1,19.26,162.915Z" transform="translate(-1.918 -104.948)" fill="#fc5d3d"/>
      <g id="Grupo_1201792" data-name="Grupo 1201792" transform="translate(3.052 39.012)">
        <path id="Trazado_1045790" data-name="Trazado 1045790" d="M9.452,146.2v2.37H4.97v-2.291a2.294,2.294,0,0,1,2.089-2.314A2.24,2.24,0,0,1,9.452,146.2Z" transform="translate(-4.97 -143.959)" fill="#ffb69f"/>
        <path id="Trazado_1045791" data-name="Trazado 1045791" d="M28.235,183.133v2.4a3.253,3.253,0,0,1-6.505,0v-2.4a3.253,3.253,0,1,1,6.505,0Z" transform="translate(-17.836 -171.535)" fill="#ffb69f"/>
        <path id="Trazado_1045792" data-name="Trazado 1045792" d="M89.745,183.133v2.4a3.253,3.253,0,0,1-6.254,1.255,3.225,3.225,0,0,1-.251-1.255v-2.4a3.253,3.253,0,1,1,6.505,0Z" transform="translate(-65.056 -171.535)" fill="#ffb69f"/>
      </g>
      <path id="Trazado_1045793" data-name="Trazado 1045793" d="M80.771,213.1v6.171H66.48V213.1a3.485,3.485,0,0,1,3.485-3.485h.66a3.254,3.254,0,0,0,6,0h.657a3.486,3.486,0,0,1,3.486,3.485Z" transform="translate(-49.138 -155.354)" fill="#f0c020"/>
      <path id="Trazado_1045794" data-name="Trazado 1045794" d="M151.265,183.133v2.4a3.253,3.253,0,0,1-6.254,1.255,3.225,3.225,0,0,1-.251-1.255v-2.4a3.253,3.253,0,1,1,6.505,0Z" transform="translate(-109.232 -132.523)" fill="#ffb69f"/>
      <path id="Trazado_1045795" data-name="Trazado 1045795" d="M142.286,213.1v6.171H127.995V213.1a3.486,3.486,0,0,1,3.486-3.485h.66a3.254,3.254,0,0,0,6,0h.657A3.485,3.485,0,0,1,142.286,213.1Z" transform="translate(-96.362 -155.354)" fill="#72c2e9"/>
      <path id="Trazado_1045796" data-name="Trazado 1045796" d="M203.82,146.277v22.591H189.53v-5.954a3.7,3.7,0,0,1,3.7-3.7h.439a3.254,3.254,0,0,0,6.257-1.255v-2.4a3.219,3.219,0,0,0-.59-1.863s0,0,0,0V146.2a2.24,2.24,0,0,1,2.393-2.235,2.3,2.3,0,0,1,2.091,2.314Z" transform="translate(-143.601 -104.947)" fill="#8b72e9"/>
      <path id="Trazado_1045797" data-name="Trazado 1045797" d="M236.224,146.278v2.291H231.74V146.2a2.24,2.24,0,0,1,2.393-2.235A2.3,2.3,0,0,1,236.224,146.278Z" transform="translate(-176.004 -104.948)" fill="#ffb69f"/>
      <path id="Trazado_1045798" data-name="Trazado 1045798" d="M212.785,183.133v2.4a3.253,3.253,0,1,1-6.505,0v-2.4a3.251,3.251,0,0,1,5.915-1.866s0,0,0,0A3.219,3.219,0,0,1,212.785,183.133Z" transform="translate(-156.459 -132.523)" fill="#ffb69f"/>
      <g id="Grupo_1201794" data-name="Grupo 1201794" transform="translate(20.442 10.358)">
        <g id="Grupo_1201793" data-name="Grupo 1201793">
          <path id="Trazado_1045799" data-name="Trazado 1045799" d="M85.418,50.167a1.626,1.626,0,0,1-1.626-1.623l-.006-2.9a4.275,4.275,0,0,0-.3-1.732,59.287,59.287,0,0,0-2.99-5.425,4.7,4.7,0,0,1-.643-2.927c.309-2.8.271-2.464.451-4.068a4.667,4.667,0,0,1,2.807-3.786V24.134a3.514,3.514,0,0,1,6.123-2.343,3.51,3.51,0,0,1,3.913,1.14,3.508,3.508,0,0,1,3.8,1.223,3.515,3.515,0,0,1,4.5,3.372c0,.1,0,1.8,0,1.9l.678,4.522a8.988,8.988,0,0,1-1.779,6.713l-1.134,1.47a1.11,1.11,0,0,0-.239.689v5.724a1.626,1.626,0,0,1-1.626,1.626H85.418Z" transform="translate(-79.823 -20.624)" fill="#afafaf"/>
          <path id="Trazado_1045800" data-name="Trazado 1045800" d="M104.427,45.038l-1.136,1.471a2.721,2.721,0,0,0-.577,1.682v5.724H90.791l-.006-2.926a5.989,5.989,0,0,0-.485-2.451,59.931,59.931,0,0,0-3.04-5.514,3.051,3.051,0,0,1-.42-1.909c.3-2.741.2-1.813.451-4.066A3.046,3.046,0,0,1,90.1,34.34h0V29.509a1.882,1.882,0,0,1,1.884-1.884h0a1.882,1.882,0,0,1,1.884,1.884v.971a1.886,1.886,0,0,1,3.771,0v1.185a1.886,1.886,0,0,1,3.771,0V32.9a1.886,1.886,0,1,1,3.771,0v1.767a1.719,1.719,0,0,1-.01.2v0c.288,1.919.406,2.713.7,4.694A7.3,7.3,0,0,1,104.427,45.038Z" transform="translate(-85.195 -25.999)" fill="#ffb69f"/>
        </g>
      </g>
      <g id="Grupo_1201795" data-name="Grupo 1201795" transform="translate(16.761 61.629)">
        <path id="Trazado_1045801" data-name="Trazado 1045801" d="M78.852,242.472H64.561a.581.581,0,1,1,0-1.162H78.852a.581.581,0,1,1,0,1.162Z" transform="translate(-63.98 -241.31)" fill="#f8e5b0"/>
      </g>
      <g id="Grupo_1201796" data-name="Grupo 1201796" transform="translate(45.349 61.629)">
        <path id="Trazado_1045802" data-name="Trazado 1045802" d="M199.3,242.472H187.611a.581.581,0,1,1,0-1.162H199.3a.581.581,0,1,1,0,1.162Z" transform="translate(-187.03 -241.31)" fill="#b8a4ff"/>
      </g>
      <g id="Grupo_1201797" data-name="Grupo 1201797" transform="translate(5.066 61.629)">
        <path id="Trazado_1045803" data-name="Trazado 1045803" d="M25.916,242.472H17.241a.581.581,0,1,1,0-1.162h8.675a.581.581,0,1,1,0,1.162Zm-11,0h-.7a.581.581,0,1,1,0-1.162h.7a.581.581,0,1,1,0,1.162Z" transform="translate(-13.64 -241.31)" fill="#ffcbc3"/>
      </g>
      <g id="Grupo_1201798" data-name="Grupo 1201798" transform="translate(31.053 61.629)">
        <path id="Trazado_1045804" data-name="Trazado 1045804" d="M140.367,242.472H126.076a.581.581,0,1,1,0-1.162h14.291a.581.581,0,1,1,0,1.162Z" transform="translate(-125.495 -241.31)" fill="#c5e5fe"/>
      </g>
      <path id="Trazado_1045805" data-name="Trazado 1045805" d="M64.16,44.005l2.272,3.556a.581.581,0,0,0,.979,0L69.68,44.01A18.483,18.483,0,1,0,48.437,25.735s0,.006,0,.008a18.366,18.366,0,0,0,1.377,7.007.581.581,0,0,0,1.076-.442A17.207,17.207,0,0,1,49.6,25.736s0,0,0-.006A17.323,17.323,0,1,1,69.256,42.9a.58.58,0,0,0-.412.263l-1.923,3.01L65,43.16a.6.6,0,0,0-.412-.264,17.206,17.206,0,0,1-11.47-6.7.592.592,0,0,0-.813-.111.583.583,0,0,0-.112.813,18.435,18.435,0,0,0,11.968,7.1Z" transform="translate(-35.287)"/>
      <path id="Trazado_1045806" data-name="Trazado 1045806" d="M58.868,122.628a.581.581,0,1,0,.792.216.592.592,0,0,0-.792-.216Z" transform="translate(-43.071 -88.516)"/>
      <path id="Trazado_1045807" data-name="Trazado 1045807" d="M50.922,237.945v-3.424a.581.581,0,1,0-1.162,0v3.424a.581.581,0,0,0,1.162,0Z" transform="translate(-36.303 -174.023)"/>
      <path id="Trazado_1045808" data-name="Trazado 1045808" d="M79.132,237.945v-3.424a.581.581,0,1,0-1.162,0v3.424a.581.581,0,0,0,1.162,0Z" transform="translate(-57.959 -174.023)"/>
      <path id="Trazado_1045809" data-name="Trazado 1045809" d="M112.662,237.945v-3.424a.581.581,0,1,0-1.162,0v3.424a.581.581,0,0,0,1.162,0Z" transform="translate(-83.699 -174.023)"/>
      <path id="Trazado_1045810" data-name="Trazado 1045810" d="M140.652,237.945v-3.424a.581.581,0,1,0-1.162,0v3.424a.581.581,0,0,0,1.162,0Z" transform="translate(-105.186 -174.023)"/>
      <path id="Trazado_1045811" data-name="Trazado 1045811" d="M174.182,237.945v-3.424a.581.581,0,1,0-1.162,0v3.424a.581.581,0,0,0,1.162,0Z" transform="translate(-130.926 -174.023)"/>
      <path id="Trazado_1045812" data-name="Trazado 1045812" d="M202.409,237.945v-3.424a.58.58,0,1,0-1.159,0v3.424a.58.58,0,0,0,1.159,0Z" transform="translate(-152.598 -174.023)"/>
      <path id="Trazado_1045813" data-name="Trazado 1045813" d="M58.167,141.465a2.821,2.821,0,0,0-3.012,2.814v6.142a3.831,3.831,0,0,0-5.916,3.216v2.4a3.829,3.829,0,0,0,.065.69,4.28,4.28,0,0,0-3.329,2.048,4.065,4.065,0,0,0-3.424-2.059,3.834,3.834,0,0,0,.063-.68v-2.4a3.833,3.833,0,0,0-7.667,0v2.4a3.854,3.854,0,0,0,.063.679,4.063,4.063,0,0,0-3.377,1.977,4.063,4.063,0,0,0-3.375-1.977,3.836,3.836,0,0,0,.063-.68v-2.4a3.838,3.838,0,0,0-3.833-3.833h0a3.791,3.791,0,0,0-1.422.274.581.581,0,0,0,.432,1.078,2.684,2.684,0,0,1,.994-.191h0a2.675,2.675,0,0,1,2.672,2.672v2.4a2.672,2.672,0,1,1-5.343,0h0v-1.625a.581.581,0,0,0-1.162,0v1.628a3.875,3.875,0,0,0,.062.677,4.065,4.065,0,0,0-3.423,2.055,4.28,4.28,0,0,0-3.328-2.044,3.825,3.825,0,0,0,.065-.69v-2.4a3.831,3.831,0,0,0-5.917-3.216v-6.142A2.821,2.821,0,0,0,5.1,141.465a2.869,2.869,0,0,0-2.631,2.893v22.591a.581.581,0,0,0,1.162,0V147.23h3.32V151.6a3.863,3.863,0,0,0-.588,2.038v2.4a3.834,3.834,0,0,0,7.2,1.835,3.123,3.123,0,0,1,3.2,3.12v5.954a.581.581,0,0,0,1.162,0v-6.171a2.907,2.907,0,0,1,2.9-2.9h.295a3.835,3.835,0,0,0,6.733,0h.293a2.908,2.908,0,0,1,2.905,2.9v6.171a.581.581,0,0,0,1.162,0v-6.171a2.908,2.908,0,0,1,2.905-2.9h.295a3.835,3.835,0,0,0,6.733,0h.293a2.907,2.907,0,0,1,2.9,2.9v6.171a.581.581,0,0,0,.581.581h0a.581.581,0,0,0,.581-.581v-5.954a3.123,3.123,0,0,1,3.195-3.12,3.837,3.837,0,0,0,3.355,2h.013a3.838,3.838,0,0,0,3.833-3.833v-2.4a3.854,3.854,0,0,0-.59-2.039V147.23h3.322v19.72a.581.581,0,0,0,1.162,0V144.358A2.871,2.871,0,0,0,58.167,141.465Zm-54.535,4.6v-1.71a1.706,1.706,0,0,1,1.546-1.735,1.658,1.658,0,0,1,1.774,1.656v1.789Zm3.894,9.971v-2.4a2.672,2.672,0,0,1,5.343,0v2.4a2.672,2.672,0,0,1-5.343,0Zm28.583,0v-2.4a2.672,2.672,0,0,1,5.343,0v2.4a2.672,2.672,0,0,1-5.343,0Zm14.291-2.4a2.672,2.672,0,0,1,5.343,0v2.4a2.672,2.672,0,0,1-5.343,0Zm5.916-7.569v-1.789a1.658,1.658,0,0,1,1.774-1.656,1.707,1.707,0,0,1,1.549,1.735v1.71Z" transform="translate(0 -103.027)"/>
      <path id="Trazado_1045814" data-name="Trazado 1045814" d="M83.141,185.045a.592.592,0,0,0-.783.248.582.582,0,1,0,.783-.248Z" transform="translate(-61.278 -136.44)"/>
      <path id="Trazado_1045815" data-name="Trazado 1045815" d="M137.922,73.726a.6.6,0,0,0-.818.084c-1.645,2.081-2.741,4.89-1.965,7.462a.581.581,0,0,0,1.113-.335v0a4.95,4.95,0,0,1-.207-1.427,8.9,8.9,0,0,1,1.961-4.967A.579.579,0,0,0,137.922,73.726Z" transform="translate(-101.651 -50.935)"/>
      <path id="Trazado_1045816" data-name="Trazado 1045816" d="M103.853,30.982a2.464,2.464,0,0,0-3.9-2.01,2.465,2.465,0,0,0-3.784-1.223,2.466,2.466,0,0,0-3.836-1.137,2.465,2.465,0,0,0-4.728.978v4.33A3.623,3.623,0,0,0,84.8,35.066c-.185,1.645-.134,1.193-.451,4.067a3.648,3.648,0,0,0,.5,2.272,60.028,60.028,0,0,1,3.022,5.483,5.288,5.288,0,0,1,.42,2.185L88.293,52a.581.581,0,0,0,.581.58h0a.581.581,0,0,0,.58-.582l-.006-2.944a6.292,6.292,0,0,0-.55-2.7,60.711,60.711,0,0,0-3.058-5.546,2.48,2.48,0,0,1-.34-1.545c.32-2.906.264-2.4.451-4.067A2.462,2.462,0,0,1,88.207,33l3.733.13a1.141,1.141,0,0,1,1.043.785c.022.066.763,2.3.785,2.357a1.142,1.142,0,0,1-1.082,1.511h-.854a8.928,8.928,0,0,0-1.37-2.822.6.6,0,0,0-.815-.084.582.582,0,0,0-.084.818.064.064,0,0,1,.009.012,9.288,9.288,0,0,1,1.554,5.678.584.584,0,0,0,.581.6.577.577,0,0,0,.581-.562,11.542,11.542,0,0,0-.178-2.477h.576a2.3,2.3,0,0,0,2.177-3.06c0-.005-.043-.119-.265-.79a2.457,2.457,0,0,0,1.133-.758,2.464,2.464,0,0,0,3.771,0,2.466,2.466,0,0,0,3.432.333l.458,3.052a6.759,6.759,0,0,1-1.342,5.041l-1.133,1.467a3.32,3.32,0,0,0-.7,2.041V52a.581.581,0,0,0,1.162,0V46.273a2.155,2.155,0,0,1,.456-1.327l1.135-1.471a7.93,7.93,0,0,0,1.573-5.918l-.694-4.625c0-.061.006-.122.006-.183ZM90.076,26.287a1.3,1.3,0,0,1,1.3,1.3c0,.046,0,.78,0,4.361l-2.609-.09V27.59A1.3,1.3,0,0,1,90.076,26.287Zm4.16,7.707-.149-.441a2.3,2.3,0,0,0-1.545-1.49V28.529a1.3,1.3,0,0,1,2.608.031c0,.087,0,1.339,0,4.172A1.3,1.3,0,0,1,94.236,33.995Zm3.383.06a1.307,1.307,0,0,1-1.307-1.306v-3a1.3,1.3,0,0,1,2.609,0v3s0,0,0,0A1.31,1.31,0,0,1,97.618,34.055Zm3.771,0a1.309,1.309,0,0,1-1.306-1.308s0-.005,0-.008V30.982a1.3,1.3,0,1,1,2.609,0v1.767a1.127,1.127,0,0,1-.006.132.011.011,0,0,1,0,0,.019.019,0,0,0,0,0,1.3,1.3,0,0,1-1.3,1.169Z" transform="translate(-62.836 -13.722)"/>
    </g>
  </g>
</svg>
