<svg xmlns="http://www.w3.org/2000/svg" xmlns:xlink="http://www.w3.org/1999/xlink" width="103" height="103" viewBox="0 0 103 103">
  <defs>
    <filter id="Trazado_982547" x="0" y="0" width="103" height="103" filterUnits="userSpaceOnUse">
      <feOffset dy="3" input="SourceAlpha"/>
      <feGaussianBlur stdDeviation="3" result="blur"/>
      <feFlood flood-opacity="0.161"/>
      <feComposite operator="in" in2="blur"/>
      <feComposite in="SourceGraphic"/>
    </filter>
  </defs>
  <g id="Grupo_1201803" data-name="Grupo 1201803" transform="translate(-502 -7016.297)">
    <g id="Grupo_1201766" data-name="Grupo 1201766" transform="translate(511 7022.297)">
      <g id="Grupo_1201328" data-name="Grupo 1201328">
        <g id="Grupo_1172010" data-name="Grupo 1172010">
          <g id="Grupo_1171046" data-name="Grupo 1171046">
            <g id="Grupo_1148525" data-name="Grupo 1148525">
              <g transform="matrix(1, 0, 0, 1, -9, -6)" filter="url(#Trazado_982547)">
                <g id="Trazado_982547-2" data-name="Trazado 982547" transform="translate(9 6)" fill="#fdfbec">
                  <path d="M 42.5 83.5 C 36.96437835693359 83.5 31.59512901306152 82.41617584228516 26.54141235351562 80.27863311767578 C 21.65934181213379 78.21369171142578 17.27447128295898 75.25723266601562 13.50862312316895 71.49137878417969 C 9.742764472961426 67.72553253173828 6.786305904388428 63.34066009521484 4.721364498138428 58.45858764648438 C 2.583823442459106 53.40486907958984 1.5 48.03562164306641 1.5 42.5 C 1.5 36.96437835693359 2.583823442459106 31.59512901306152 4.721364498138428 26.54141235351562 C 6.786305904388428 21.65934181213379 9.742764472961426 17.27448272705078 13.50862312316895 13.50862312316895 C 17.27447128295898 9.742776870727539 21.65934181213379 6.786305904388428 26.54141235351562 4.721364498138428 C 31.59512901306152 2.583823442459106 36.96437835693359 1.5 42.5 1.5 C 48.03562164306641 1.5 53.40486907958984 2.583823442459106 58.45858764648438 4.721364498138428 C 63.34066009521484 6.786305904388428 67.72553253173828 9.742776870727539 71.49137878417969 13.50862312316895 C 75.25723266601562 17.27448272705078 78.21369171142578 21.65934181213379 80.27863311767578 26.54141235351562 C 82.41617584228516 31.59512901306152 83.5 36.96437835693359 83.5 42.5 C 83.5 48.03562164306641 82.41617584228516 53.40486907958984 80.27863311767578 58.45858764648438 C 78.21369171142578 63.34066009521484 75.25723266601562 67.72553253173828 71.49137878417969 71.49137878417969 C 67.72553253173828 75.25723266601562 63.34066009521484 78.21369171142578 58.45858764648438 80.27863311767578 C 53.40486907958984 82.41617584228516 48.03562164306641 83.5 42.5 83.5 Z" stroke="none"/>
                  <path d="M 42.5 3 C 37.16621398925781 3 31.99356079101562 4.043960571289062 27.125732421875 6.102882385253906 C 22.42246627807617 8.092185974121094 18.19785308837891 10.94070434570312 14.56928253173828 14.56928253173828 C 10.94070434570312 18.19785308837891 8.092185974121094 22.42246627807617 6.102882385253906 27.125732421875 C 4.043960571289062 31.99356079101562 3 37.16621398925781 3 42.5 C 3 47.83378601074219 4.043960571289062 53.00643920898438 6.102882385253906 57.87425231933594 C 8.092185974121094 62.57753372192383 10.94070434570312 66.80213165283203 14.56928253173828 70.43071746826172 C 18.19786834716797 74.05929565429688 22.42246627807617 76.90781402587891 27.125732421875 78.89711761474609 C 31.99356079101562 80.95603942871094 37.16621398925781 82 42.5 82 C 47.83378601074219 82 53.00642395019531 80.95603942871094 57.87425231933594 78.89711761474609 C 62.57753372192383 76.90781402587891 66.80213165283203 74.05929565429688 70.43071746826172 70.43071746826172 C 74.05929565429688 66.80213165283203 76.90781402587891 62.57753372192383 78.89711761474609 57.87425231933594 C 80.95603942871094 53.00642395019531 82 47.83378601074219 82 42.5 C 82 37.16621398925781 80.95603942871094 31.99356079101562 78.89711761474609 27.125732421875 C 76.90781402587891 22.42246627807617 74.05929565429688 18.19786834716797 70.43071746826172 14.56928253173828 C 66.80213165283203 10.94070434570312 62.57753372192383 8.092185974121094 57.87425231933594 6.102882385253906 C 53.00643920898438 4.043960571289062 47.83378601074219 3 42.5 3 M 42.5 0 C 65.97209167480469 0 85 19.02789306640625 85 42.5 C 85 65.97209167480469 65.97209167480469 85 42.5 85 C 19.02789306640625 85 0 65.97209167480469 0 42.5 C 0 19.02789306640625 19.02789306640625 0 42.5 0 Z" stroke="none" fill="#83793c"/>
                </g>
              </g>
            </g>
          </g>
        </g>
      </g>
    </g>
    <g id="Global" transform="translate(523.188 7035.729)">
      <path id="Trazado_1045827" data-name="Trazado 1045827" d="M60.5,4.751V31.022H57V4.751a1.751,1.751,0,0,1,3.5,0Z" transform="translate(-6.833 -0.124)" fill="#ff3051"/>
      <path id="Trazado_1045828" data-name="Trazado 1045828" d="M60.5,35l-1.751,7.006L57,35Z" transform="translate(-6.833 -4.102)" fill="#ffde55"/>
      <path id="Trazado_1045829" data-name="Trazado 1045829" d="M47.779,45a7.006,7.006,0,1,1,0,14.011H11V45Z" transform="translate(-1.115 -5.345)" fill="#ffe477"/>
      <path id="Trazado_1045830" data-name="Trazado 1045830" d="M46.785,29V43.011H10.006a7.006,7.006,0,1,1,0-14.011Z" transform="translate(-0.121 -3.356)" fill="#9cdd05"/>
      <path id="Trazado_1045831" data-name="Trazado 1045831" d="M48.515,19.384H38.882a35.921,35.921,0,0,0-.832-7.925A15.535,15.535,0,0,0,43.646,8a15.668,15.668,0,0,1,4.869,11.384Z" transform="translate(-4.478 -0.746)" fill="#2488ff"/>
      <g id="Grupo_1201802" data-name="Grupo 1201802" transform="translate(22.144 2.876)">
        <path id="Trazado_1045832" data-name="Trazado 1045832" d="M38.909,21h9.633A15.658,15.658,0,0,1,46.9,28.006H38.27A36.906,36.906,0,0,0,38.909,21Z" transform="translate(-26.649 -5.237)" fill="#57a4ff"/>
        <path id="Trazado_1045833" data-name="Trazado 1045833" d="M42.894,7.378a15.535,15.535,0,0,1-5.6,3.459C36.238,6.153,34.268,3,32,3A15.689,15.689,0,0,1,42.894,7.378Z" transform="translate(-25.869 -3)" fill="#57a4ff"/>
        <path id="Trazado_1045834" data-name="Trazado 1045834" d="M37.26,19.875H25a35.921,35.921,0,0,1,.832-7.925,15.668,15.668,0,0,0,5.3.919,15.668,15.668,0,0,0,5.3-.919,35.92,35.92,0,0,1,.832,7.925Z" transform="translate(-24.999 -4.112)" fill="#57a4ff"/>
      </g>
      <path id="Trazado_1045835" data-name="Trazado 1045835" d="M25,21H37.26a36.907,36.907,0,0,1-.639,7.006H25.639A36.907,36.907,0,0,1,25,21Z" transform="translate(-2.855 -2.362)" fill="#2488ff"/>
      <path id="Trazado_1045836" data-name="Trazado 1045836" d="M31.248,3c2.268,0,4.238,3.153,5.3,7.838a15.668,15.668,0,0,1-5.3.919,15.668,15.668,0,0,1-5.3-.919C27.01,6.153,28.98,3,31.248,3Z" transform="translate(-2.973 -0.124)" fill="#2488ff"/>
      <path id="Trazado_1045837" data-name="Trazado 1045837" d="M30.454,3c-2.268,0-4.238,3.153-5.3,7.838a15.535,15.535,0,0,1-5.6-3.459A15.689,15.689,0,0,1,30.454,3Z" transform="translate(-2.179 -0.124)" fill="#57a4ff"/>
      <path id="Trazado_1045838" data-name="Trazado 1045838" d="M18.869,8a15.535,15.535,0,0,0,5.6,3.459,35.92,35.92,0,0,0-.832,7.925H14A15.668,15.668,0,0,1,18.869,8Z" transform="translate(-1.488 -0.746)" fill="#2488ff"/>
      <path id="Trazado_1045839" data-name="Trazado 1045839" d="M24.272,28.006H15.646A15.658,15.658,0,0,1,14,21h9.633a36.907,36.907,0,0,0,.639,7.006Z" transform="translate(-1.488 -2.362)" fill="#57a4ff"/>
      <path id="Trazado_1045840" data-name="Trazado 1045840" d="M58.627,2A2.627,2.627,0,0,0,56,4.627V30.9a.876.876,0,0,0,.026.213l1.751,7.006a.876.876,0,0,0,1.7,0l1.751-7.006a.876.876,0,0,0,.026-.213V4.627A2.627,2.627,0,0,0,58.627,2Zm0,1.751a.876.876,0,0,1,.876.876v25.4H57.751V4.627A.876.876,0,0,1,58.627,3.751Zm0,30.542L58,31.774h1.259Z" transform="translate(-6.709 0)"/>
      <path id="Trazado_1045841" data-name="Trazado 1045841" d="M47.54,38.831V25.644a.876.876,0,0,0-.876-.876H43.735a16.444,16.444,0,0,0,1.178-6.13,16.638,16.638,0,1,0-33.277,0,16.444,16.444,0,0,0,1.178,6.13H9.885a7.881,7.881,0,0,0-.876,15.711V53.666a.876.876,0,0,0,.876.876H46.664a7.881,7.881,0,0,0,.876-15.711ZM34.8,24.768a37.85,37.85,0,0,0,.461-5.254h7.851a14.65,14.65,0,0,1-1.3,5.254Zm-11.275,0a35.766,35.766,0,0,1-.485-5.254h10.47a35.766,35.766,0,0,1-.485,5.254Zm4.75-21.017c1.561,0,3.234,2.415,4.262,6.385a14.887,14.887,0,0,1-4.262.621,14.887,14.887,0,0,1-4.262-.621c1.028-3.97,2.7-6.385,4.262-6.385ZM22.354,9.519a14.784,14.784,0,0,1-3.647-2.265A14.849,14.849,0,0,1,24.7,4.208a15.96,15.96,0,0,0-2.345,5.311ZM31.85,4.2a14.849,14.849,0,0,1,5.992,3.051A14.784,14.784,0,0,1,34.2,9.523,15.96,15.96,0,0,0,31.85,4.2Zm-3.575,8.305a16.668,16.668,0,0,0,4.644-.659,35.617,35.617,0,0,1,.592,5.914H23.038a35.616,35.616,0,0,1,.6-5.913,16.662,16.662,0,0,0,4.639.659Zm14.842,5.254H35.263a37.511,37.511,0,0,0-.668-6.5,16.551,16.551,0,0,0,4.518-2.8,14.808,14.808,0,0,1,4,9.3Zm-25.68-9.3a16.551,16.551,0,0,0,4.518,2.8,37.51,37.51,0,0,0-.668,6.5H13.432a14.808,14.808,0,0,1,4-9.3Zm-4,11.05h7.851a37.85,37.85,0,0,0,.461,5.254H14.734a14.65,14.65,0,0,1-1.3-5.254ZM3.755,32.649a6.137,6.137,0,0,1,6.13-6.13h35.9v12.26H9.885a6.137,6.137,0,0,1-6.13-6.13ZM46.664,52.791h-35.9V40.531h35.9a6.13,6.13,0,0,1,0,12.26Z" transform="translate(0 0)"/>
      <path id="Trazado_1045842" data-name="Trazado 1045842" d="M16,52H51.028v1.751H16Z" transform="translate(-1.737 -6.215)"/>
      <path id="Trazado_1045843" data-name="Trazado 1045843" d="M12,36H43.525v1.751H12Z" transform="translate(-1.239 -4.226)"/>
      <path id="Trazado_1045844" data-name="Trazado 1045844" d="M16,48H49.277v1.751H16Z" transform="translate(-1.737 -5.718)"/>
      <path id="Trazado_1045845" data-name="Trazado 1045845" d="M16,56H49.277v1.751H16Z" transform="translate(-1.737 -6.712)"/>
      <path id="Trazado_1045846" data-name="Trazado 1045846" d="M8,36H9.751v1.751H8Z" transform="translate(-0.742 -4.226)"/>
    </g>
  </g>
</svg>
