<svg xmlns="http://www.w3.org/2000/svg" xmlns:xlink="http://www.w3.org/1999/xlink" width="113" height="113" viewBox="0 0 113 113">
  <defs>
    <filter id="Trazado_982547" x="0" y="0" width="113" height="113" filterUnits="userSpaceOnUse">
      <feOffset dy="3" input="SourceAlpha"/>
      <feGaussianBlur stdDeviation="3" result="blur"/>
      <feFlood flood-opacity="0.161"/>
      <feComposite operator="in" in2="blur"/>
      <feComposite in="SourceGraphic"/>
    </filter>
  </defs>
  <g id="Grupo_1201787" data-name="Grupo 1201787" transform="translate(-901.5 -2641.325)">
    <g id="Grupo_1201682" data-name="Grupo 1201682" transform="translate(630.5 1726.825)">
      <g id="Grupo_1201330" data-name="Grupo 1201330" transform="translate(280 920.5)">
        <g id="Grupo_1172010" data-name="Grupo 1172010">
          <g id="Grupo_1171046" data-name="Grupo 1171046">
            <g id="Grupo_1148525" data-name="Grupo 1148525">
              <g transform="matrix(1, 0, 0, 1, -9, -6)" filter="url(#Trazado_982547)">
                <g id="Trazado_982547-2" data-name="Trazado 982547" transform="translate(9 6)" fill="#fdfbec">
                  <path d="M 47.5 93.5 C 41.28937149047852 93.5 35.26533508300781 92.28397369384766 29.59518623352051 89.88570404052734 C 24.11771965026855 87.56893157958984 19.19813346862793 84.25196075439453 14.97309303283691 80.02691650390625 C 10.74804019927979 75.80186462402344 7.431066513061523 70.88229370117188 5.114293098449707 65.40481567382812 C 2.716026782989502 59.73468017578125 1.5 53.71062850952148 1.5 47.5 C 1.5 41.28937149047852 2.716026782989502 35.26533508300781 5.114293098449707 29.59518623352051 C 7.431066513061523 24.11771965026855 10.74804019927979 19.19813346862793 14.97309303283691 14.97309303283691 C 19.19813346862793 10.74804019927979 24.11771965026855 7.431066513061523 29.59518623352051 5.114293098449707 C 35.26533508300781 2.716026782989502 41.28937149047852 1.5 47.5 1.5 C 53.71062850952148 1.5 59.73468017578125 2.716026782989502 65.40481567382812 5.114293098449707 C 70.88229370117188 7.431066513061523 75.80186462402344 10.74804019927979 80.02691650390625 14.97309303283691 C 84.25196075439453 19.19813346862793 87.56893157958984 24.11771965026855 89.88570404052734 29.59518623352051 C 92.28397369384766 35.26533508300781 93.5 41.28937149047852 93.5 47.5 C 93.5 53.71062850952148 92.28397369384766 59.73468017578125 89.88570404052734 65.40481567382812 C 87.56893157958984 70.88229370117188 84.25196075439453 75.80186462402344 80.02691650390625 80.02691650390625 C 75.80186462402344 84.25196075439453 70.88229370117188 87.56893157958984 65.40481567382812 89.88570404052734 C 59.73468017578125 92.28397369384766 53.71062850952148 93.5 47.5 93.5 Z" stroke="none"/>
                  <path d="M 47.5 3 C 41.49121475219727 3 35.66376876831055 4.176155090332031 30.17950439453125 6.495796203613281 C 24.88084411621094 8.736953735351562 20.12152099609375 11.94598388671875 16.03375244140625 16.03375244140625 C 11.94598388671875 20.12152099609375 8.736953735351562 24.88084411621094 6.495796203613281 30.17950439453125 C 4.176155090332031 35.66376876831055 3 41.49121475219727 3 47.5 C 3 53.50878524780273 4.176155090332031 59.33623123168945 6.495796203613281 64.82049560546875 C 8.736953735351562 70.11915588378906 11.94598388671875 74.87847900390625 16.03375244140625 78.96624755859375 C 20.12152099609375 83.05401611328125 24.88084411621094 86.26304626464844 30.17950439453125 88.50419616699219 C 35.66376876831055 90.82384490966797 41.49121475219727 92 47.5 92 C 53.50878524780273 92 59.33623123168945 90.82384490966797 64.82049560546875 88.50419616699219 C 70.11915588378906 86.26304626464844 74.87847900390625 83.05401611328125 78.96624755859375 78.96624755859375 C 83.05401611328125 74.87847900390625 86.26304626464844 70.11915588378906 88.50419616699219 64.82049560546875 C 90.82384490966797 59.33623123168945 92 53.50878524780273 92 47.5 C 92 41.49121475219727 90.82384490966797 35.66376876831055 88.50419616699219 30.17950439453125 C 86.26304626464844 24.88084411621094 83.05401611328125 20.12152099609375 78.96624755859375 16.03375244140625 C 74.87847900390625 11.94598388671875 70.11915588378906 8.736953735351562 64.82049560546875 6.495796203613281 C 59.33623123168945 4.176155090332031 53.50878524780273 3 47.5 3 M 47.5 0 C 73.7335205078125 0 95 21.2664794921875 95 47.5 C 95 73.7335205078125 73.7335205078125 95 47.5 95 C 21.2664794921875 95 0 73.7335205078125 0 47.5 C 0 21.2664794921875 21.2664794921875 0 47.5 0 Z" stroke="none" fill="#83793c"/>
                </g>
              </g>
            </g>
          </g>
        </g>
      </g>
    </g>
    <g id="human-rights_17940469" transform="translate(905.495 2657.309)">
      <path id="Trazado_1045769" data-name="Trazado 1045769" d="M46.7,395.707a9.185,9.185,0,1,1-18.37,0Z" transform="translate(-6.063 -339.634)" fill="#ffd987" fill-rule="evenodd"/>
      <path id="Trazado_1045770" data-name="Trazado 1045770" d="M80.28,58.378h2.042a5.92,5.92,0,0,1,5.9,5.9v2.441H74.377V64.281a5.92,5.92,0,0,1,5.9-5.9Z" transform="translate(-45.996 -47.112)" fill="#88f288" fill-rule="evenodd"/>
      <path id="Trazado_1045771" data-name="Trazado 1045771" d="M339.269,58.378h2.042a5.92,5.92,0,0,1,5.9,5.9v2.441H333.366V64.281a5.92,5.92,0,0,1,5.9-5.9Z" transform="translate(-270.584 -47.112)" fill="#88f288" fill-rule="evenodd"/>
      <circle id="Elipse_12465" data-name="Elipse 12465" cx="3.15" cy="3.15" r="3.15" transform="translate(66.556 4.965)" fill="#ebdbd6"/>
      <path id="Trazado_1045772" data-name="Trazado 1045772" d="M293.22,138.478h2.042a5.92,5.92,0,0,1,5.9,5.9v2.441H287.317v-2.441A5.92,5.92,0,0,1,293.22,138.478Z" transform="translate(-230.652 -116.573)" fill="#ffeb87" fill-rule="evenodd"/>
      <circle id="Elipse_12466" data-name="Elipse 12466" cx="3.15" cy="3.15" r="3.15" transform="translate(60.245 15.812) rotate(-3.555)" fill="#ebdbd6"/>
      <path id="Trazado_1045773" data-name="Trazado 1045773" d="M385.316,138.478h2.042a5.92,5.92,0,0,1,5.9,5.9v2.441H379.413v-2.441A5.92,5.92,0,0,1,385.316,138.478Z" transform="translate(-310.515 -116.573)" fill="#85caff" fill-rule="evenodd"/>
      <circle id="Elipse_12467" data-name="Elipse 12467" cx="3.15" cy="3.15" r="3.15" transform="translate(72.477 15.814) rotate(-3.555)" fill="#ebdbd6"/>
      <circle id="Elipse_12468" data-name="Elipse 12468" cx="3.15" cy="3.15" r="3.15" transform="translate(32.154 4.965)" fill="#ebdbd6"/>
      <path id="Trazado_1045774" data-name="Trazado 1045774" d="M126.327,138.478h2.042a5.92,5.92,0,0,1,5.9,5.9v2.441H120.424v-2.441A5.92,5.92,0,0,1,126.327,138.478Z" transform="translate(-85.927 -116.573)" fill="#ffd987" fill-rule="evenodd"/>
      <circle id="Elipse_12469" data-name="Elipse 12469" cx="3.15" cy="3.15" r="3.15" transform="translate(38.078 15.809) rotate(-3.555)" fill="#ebdbd6"/>
      <path id="Trazado_1045775" data-name="Trazado 1045775" d="M69.3,241.628a4.316,4.316,0,0,1-4.315-4.315,2.415,2.415,0,1,1,4.51,1.2h41.723a2.415,2.415,0,1,1,4.51-1.2,4.316,4.316,0,0,1-4.316,4.315Z" transform="translate(-37.852 -200.185)" fill="#c9b0a9" fill-rule="evenodd"/>
      <path id="Trazado_1045776" data-name="Trazado 1045776" d="M363.74,395.707a9.185,9.185,0,1,1-18.37,0Z" transform="translate(-280.994 -339.634)" fill="#ffd987" fill-rule="evenodd"/>
      <path id="Trazado_1045777" data-name="Trazado 1045777" d="M34.23,138.478h2.042a5.92,5.92,0,0,1,5.9,5.9v2.441H28.327v-2.441a5.92,5.92,0,0,1,5.9-5.9Z" transform="translate(-6.063 -116.573)" fill="#ff879b" fill-rule="evenodd"/>
      <circle id="Elipse_12470" data-name="Elipse 12470" cx="3.15" cy="3.15" r="3.15" transform="translate(26.038 15.605)" fill="#ebdbd6"/>
      <g id="Grupo_1201786" data-name="Grupo 1201786" transform="translate(21.335 4.049)">
        <path id="Trazado_1045778" data-name="Trazado 1045778" d="M195.533,291.089V278.9A12.012,12.012,0,0,1,197,273.018a11.45,11.45,0,0,0,1.351-5.548v-6.013l-9.467.041a2.561,2.561,0,0,0-2.553-2.553h-3.765c-2.193,0-3.46.479-4.178,1.445-1,1.346-.99,4.072-.771,5.658.569,4.115,2.955,7.215,3.126,10.118v14.925h14.792Z" transform="translate(-156.753 -225.086)" fill="#ebdbd6" fill-rule="evenodd"/>
        <path id="Trazado_1045779" data-name="Trazado 1045779" d="M222.676,215.82a2.62,2.62,0,0,1,2.613,2.613V223.3a2.613,2.613,0,0,1-5.226,0v-4.867a2.62,2.62,0,0,1,2.613-2.613Z" transform="translate(-193.666 -187.691)" fill="#ebdbd6" fill-rule="evenodd"/>
        <path id="Trazado_1045780" data-name="Trazado 1045780" d="M183.334,220.493a2.62,2.62,0,0,1,2.613,2.613v4.867a2.613,2.613,0,0,1-5.226,0v-4.867A2.62,2.62,0,0,1,183.334,220.493Z" transform="translate(-159.55 -191.743)" fill="#ebdbd6" fill-rule="evenodd"/>
        <path id="Trazado_1045781" data-name="Trazado 1045781" d="M262.017,219.754a2.62,2.62,0,0,1,2.613,2.613v4.867a2.613,2.613,0,0,1-5.226,0v-4.867A2.62,2.62,0,0,1,262.017,219.754Z" transform="translate(-227.781 -191.102)" fill="#ebdbd6" fill-rule="evenodd"/>
        <path id="Trazado_1045782" data-name="Trazado 1045782" d="M301.121,231.557a2.381,2.381,0,0,1,2.374,2.374v3.776a2.374,2.374,0,1,1-4.749,0v-3.776a2.381,2.381,0,0,1,2.374-2.374Z" transform="translate(-261.898 -201.337)" fill="#ebdbd6" fill-rule="evenodd"/>
        <path id="Trazado_1045783" data-name="Trazado 1045783" d="M23.192,27.809a4.981,4.981,0,0,1,4.975-4.973h2.042a4.981,4.981,0,0,1,4.975,4.973V29.32H23.192ZM70.036,4.049h-.66a4.081,4.081,0,0,0-2.839,6.635,6.845,6.845,0,0,0-4.3,4.222,4.07,4.07,0,0,0-1.818,6.416,6.842,6.842,0,0,0-4.687,6.486V30.25a.929.929,0,0,0,.928.93H82.747a.929.929,0,0,0,.928-.93V27.808a6.841,6.841,0,0,0-4.687-6.485,4.071,4.071,0,0,0-1.818-6.417,6.846,6.846,0,0,0-4.3-4.222,4.081,4.081,0,0,0-2.839-6.635Zm-34.4,0h-.661a4.081,4.081,0,0,0-2.838,6.635,6.845,6.845,0,0,0-4.3,4.222,4.07,4.07,0,0,0-1.818,6.416,6.842,6.842,0,0,0-4.687,6.486V30.25a.929.929,0,0,0,.928.93H48.347a.929.929,0,0,0,.928-.93V27.808a6.841,6.841,0,0,0-4.687-6.485,4.08,4.08,0,0,0-1.818-6.417,6.86,6.86,0,0,0-4.3-4.222,4.081,4.081,0,0,0-2.839-6.635ZM29.191,16.535a2.22,2.22,0,1,1-2.222,2.22A2.22,2.22,0,0,1,29.191,16.535Zm5.09-4.34a4.985,4.985,0,0,0-4.341,2.551,4.072,4.072,0,0,1,2.414,6.576,6.824,6.824,0,0,1,2.951,1.943,6.913,6.913,0,0,1,2.951-1.939,4.076,4.076,0,0,1,2.407-6.58A4.978,4.978,0,0,0,36.323,12.2H34.281Zm1.024-6.3a2.22,2.22,0,1,1-2.222,2.22A2.225,2.225,0,0,1,35.305,5.9Zm8.336,12.86a2.222,2.222,0,1,1-2.222-2.22A2.225,2.225,0,0,1,43.641,18.755Zm3.771,9.053V29.32H37.04V27.808a6.856,6.856,0,0,0-.653-2.92A4.986,4.986,0,0,1,40.4,22.836h2.042a4.976,4.976,0,0,1,4.968,4.973ZM73.56,64.328A8.263,8.263,0,0,1,65.358,57h16.4a8.263,8.263,0,0,1-8.2,7.325Zm0-20.772,5.679,11.588H67.881Zm-9.7-3.138V39.259h9.508a.921.921,0,0,0,.8-.464.91.91,0,0,0,.006-.928,1.485,1.485,0,1,1,2.772-.739,3.389,3.389,0,0,1-3.387,3.386h-9.7Zm-3.3,1.444a1.446,1.446,0,0,1-1.447-1.444V36.642a1.444,1.444,0,1,1,2.887,0v3.776A1.444,1.444,0,0,1,60.557,41.861Zm-4.987,0a1.687,1.687,0,0,1-1.274-.589,3.4,3.4,0,0,0-.41-2.623V35.313a1.684,1.684,0,0,1,3.368,0v4.865a1.685,1.685,0,0,1-1.684,1.683Zm-6.908-4.886V34.791a1.684,1.684,0,0,1,3.368,0V37.16a3.456,3.456,0,0,0-1.114-.184Zm-5.224.759V35.411a1.684,1.684,0,0,1,3.368,0V36.98a7.194,7.194,0,0,0-3.368.754ZM31.451,40.513a3.389,3.389,0,0,1-3.387-3.386,1.485,1.485,0,1,1,2.772.738.929.929,0,0,0,.807,1.393H41.58v.827c-.045.14-.09.284-.128.428h-10Zm-5.679,14.63,5.679-11.588L37.13,55.143Zm5.679,9.184A8.274,8.274,0,0,1,23.243,57H39.652A8.268,8.268,0,0,1,31.451,64.328Zm51.3-9.184H81.313L74.962,42.182A5.249,5.249,0,0,0,78.8,37.128a3.342,3.342,0,1,0-6.684,0c0,.091,0,.182.006.272H63.86v-.758a3.309,3.309,0,0,0-3.3-3.3,3.268,3.268,0,0,0-1.761.511,3.541,3.541,0,0,0-5.6-1.161,3.54,3.54,0,0,0-5.743.061,3.537,3.537,0,0,0-5.871,2.662V37.4h-8.7a1.94,1.94,0,0,0,.013-.272,3.345,3.345,0,0,0-6.691,0,5.255,5.255,0,0,0,3.848,5.055L23.7,55.143H22.263a.929.929,0,0,0-.928.93,10.113,10.113,0,1,0,20.225,0,.929.929,0,0,0-.928-.93H39.2l-6.255-12.77h8.24a14.972,14.972,0,0,0,.1,2.759A23.334,23.334,0,0,0,43.1,51,13.907,13.907,0,0,1,44.4,55.148v14.9a.928.928,0,1,0,1.857,0V55.065a15.105,15.105,0,0,0-1.434-4.786,21.626,21.626,0,0,1-1.7-5.4c-.243-1.747-.115-4.017.6-4.974.339-.458,1.069-1.069,3.432-1.069h3.765a1.626,1.626,0,0,1,1.62,1.623,1.806,1.806,0,0,1-1.741,1.63l-3,.387a.931.931,0,0,0-.4,1.695,9.886,9.886,0,0,1,4.693,8.626.932.932,0,0,0,1.863,0,11.651,11.651,0,0,0-3.733-8.758l.813-.105a4.11,4.11,0,0,0,2.286-1.026,3.529,3.529,0,0,0,4.8-.267,3.311,3.311,0,0,0,2.446,1.081A3.259,3.259,0,0,0,62,43.387v3.04a10.441,10.441,0,0,1-1.242,5.11,13.046,13.046,0,0,0-1.575,6.322V70.052a.932.932,0,0,0,1.863,0V57.859A11.019,11.019,0,0,1,62.4,52.41a12.473,12.473,0,0,0,1.46-5.983V42.373h8.208l-6.255,12.77H64.379a.925.925,0,0,0-.928.93,10.113,10.113,0,1,0,20.225,0,.929.929,0,0,0-.928-.93ZM81.819,29.32H69.827V27.808A4.981,4.981,0,0,1,74.8,22.835h2.042a4.981,4.981,0,0,1,4.975,4.973ZM57.592,27.808a4.981,4.981,0,0,1,4.975-4.973h2.042a5,5,0,0,1,4.014,2.053,6.854,6.854,0,0,0-.653,2.92V29.32H57.592V27.808Zm6-11.273a2.22,2.22,0,1,1-2.222,2.22A2.22,2.22,0,0,1,63.591,16.535Zm5.1-4.34h2.036a4.978,4.978,0,0,1,4.341,2.551,4.073,4.073,0,0,0-2.407,6.577,6.818,6.818,0,0,0-2.951,1.942,6.912,6.912,0,0,0-2.952-1.939,4.076,4.076,0,0,0-2.407-6.58A4.978,4.978,0,0,1,68.688,12.2Zm1.018-6.3a2.22,2.22,0,1,1-2.222,2.22A2.225,2.225,0,0,1,69.706,5.9Zm8.336,12.86a2.218,2.218,0,1,1-2.222-2.22A2.221,2.221,0,0,1,78.042,18.755Z" transform="translate(-21.335 -4.049)" fill-rule="evenodd"/>
      </g>
    </g>
  </g>
</svg>
