<svg xmlns="http://www.w3.org/2000/svg" xmlns:xlink="http://www.w3.org/1999/xlink" width="103" height="103" viewBox="0 0 103 103">
  <defs>
    <filter id="Trazado_982547" x="0" y="0" width="103" height="103" filterUnits="userSpaceOnUse">
      <feOffset dy="3" input="SourceAlpha"/>
      <feGaussianBlur stdDeviation="3" result="blur"/>
      <feFlood flood-opacity="0.161"/>
      <feComposite operator="in" in2="blur"/>
      <feComposite in="SourceGraphic"/>
    </filter>
  </defs>
  <g id="Grupo_1201801" data-name="Grupo 1201801" transform="translate(-186 -7016.297)">
    <g id="Grupo_1201762" data-name="Grupo 1201762" transform="translate(195 7022.297)">
      <g id="Grupo_1201328" data-name="Grupo 1201328">
        <g id="Grupo_1172010" data-name="Grupo 1172010">
          <g id="Grupo_1171046" data-name="Grupo 1171046">
            <g id="Grupo_1148525" data-name="Grupo 1148525">
              <g transform="matrix(1, 0, 0, 1, -9, -6)" filter="url(#Trazado_982547)">
                <g id="Trazado_982547-2" data-name="Trazado 982547" transform="translate(9 6)" fill="#fdfbec">
                  <path d="M 42.5 83.5 C 36.96437835693359 83.5 31.59512901306152 82.41617584228516 26.54141235351562 80.27863311767578 C 21.65934181213379 78.21369171142578 17.27447128295898 75.25723266601562 13.50862312316895 71.49137878417969 C 9.742764472961426 67.72553253173828 6.786305904388428 63.34066009521484 4.721364498138428 58.45858764648438 C 2.583823442459106 53.40486907958984 1.5 48.03562164306641 1.5 42.5 C 1.5 36.96437835693359 2.583823442459106 31.59512901306152 4.721364498138428 26.54141235351562 C 6.786305904388428 21.65934181213379 9.742764472961426 17.27448272705078 13.50862312316895 13.50862312316895 C 17.27447128295898 9.742776870727539 21.65934181213379 6.786305904388428 26.54141235351562 4.721364498138428 C 31.59512901306152 2.583823442459106 36.96437835693359 1.5 42.5 1.5 C 48.03562164306641 1.5 53.40486907958984 2.583823442459106 58.45858764648438 4.721364498138428 C 63.34066009521484 6.786305904388428 67.72553253173828 9.742776870727539 71.49137878417969 13.50862312316895 C 75.25723266601562 17.27448272705078 78.21369171142578 21.65934181213379 80.27863311767578 26.54141235351562 C 82.41617584228516 31.59512901306152 83.5 36.96437835693359 83.5 42.5 C 83.5 48.03562164306641 82.41617584228516 53.40486907958984 80.27863311767578 58.45858764648438 C 78.21369171142578 63.34066009521484 75.25723266601562 67.72553253173828 71.49137878417969 71.49137878417969 C 67.72553253173828 75.25723266601562 63.34066009521484 78.21369171142578 58.45858764648438 80.27863311767578 C 53.40486907958984 82.41617584228516 48.03562164306641 83.5 42.5 83.5 Z" stroke="none"/>
                  <path d="M 42.5 3 C 37.16621398925781 3 31.99356079101562 4.043960571289062 27.125732421875 6.102882385253906 C 22.42246627807617 8.092185974121094 18.19785308837891 10.94070434570312 14.56928253173828 14.56928253173828 C 10.94070434570312 18.19785308837891 8.092185974121094 22.42246627807617 6.102882385253906 27.125732421875 C 4.043960571289062 31.99356079101562 3 37.16621398925781 3 42.5 C 3 47.83378601074219 4.043960571289062 53.00643920898438 6.102882385253906 57.87425231933594 C 8.092185974121094 62.57753372192383 10.94070434570312 66.80213165283203 14.56928253173828 70.43071746826172 C 18.19786834716797 74.05929565429688 22.42246627807617 76.90781402587891 27.125732421875 78.89711761474609 C 31.99356079101562 80.95603942871094 37.16621398925781 82 42.5 82 C 47.83378601074219 82 53.00642395019531 80.95603942871094 57.87425231933594 78.89711761474609 C 62.57753372192383 76.90781402587891 66.80213165283203 74.05929565429688 70.43071746826172 70.43071746826172 C 74.05929565429688 66.80213165283203 76.90781402587891 62.57753372192383 78.89711761474609 57.87425231933594 C 80.95603942871094 53.00642395019531 82 47.83378601074219 82 42.5 C 82 37.16621398925781 80.95603942871094 31.99356079101562 78.89711761474609 27.125732421875 C 76.90781402587891 22.42246627807617 74.05929565429688 18.19786834716797 70.43071746826172 14.56928253173828 C 66.80213165283203 10.94070434570312 62.57753372192383 8.092185974121094 57.87425231933594 6.102882385253906 C 53.00643920898438 4.043960571289062 47.83378601074219 3 42.5 3 M 42.5 0 C 65.97209167480469 0 85 19.02789306640625 85 42.5 C 85 65.97209167480469 65.97209167480469 85 42.5 85 C 19.02789306640625 85 0 65.97209167480469 0 42.5 C 0 19.02789306640625 19.02789306640625 0 42.5 0 Z" stroke="none" fill="#83793c"/>
                </g>
              </g>
            </g>
          </g>
        </g>
      </g>
    </g>
    <g id="school-material_3558074" transform="translate(211.099 7013.968)">
      <path id="Trazado_1045818" data-name="Trazado 1045818" d="M126.038,101.463c-11.781-2.618-15.411,3.24-14.9,13.407.976,9.092,8.835,14.152,14.9,10.646,6.061,3.506,13.921-1.554,14.9-10.646C141.45,104.7,137.82,98.845,126.038,101.463Z" transform="translate(-99.637 -69.336)" fill="#fc5a36"/>
      <path id="Trazado_1045819" data-name="Trazado 1045819" d="M124.473,126.223c-5.772,1.919-12.439-3.025-13.332-11.351-.48-9.468,2.636-15.2,12.582-13.828-5.888,1.06-7.809,6.246-7.425,13.828C116.928,120.749,120.435,124.94,124.473,126.223Z" transform="translate(-99.637 -69.337)" fill="#db3915"/>
      <path id="Trazado_1045820" data-name="Trazado 1045820" d="M258.815,35.674H256.47a.47.47,0,0,1-.47-.47,4.17,4.17,0,0,1,4.171-4.17h2.345a.47.47,0,0,1,.47.47A4.171,4.171,0,0,1,258.815,35.674Z" transform="translate(-229.599 -6.727)" fill="#76fca3"/>
      <path id="Trazado_1045821" data-name="Trazado 1045821" d="M7.5,350.964H58.755v13.407H7.5Z" transform="translate(-6.727 -293.665)" fill="#64b9fc"/>
      <path id="Trazado_1045822" data-name="Trazado 1045822" d="M7.5,350.968h3.094v13.407H7.5Z" transform="translate(-6.727 -293.668)" fill="#31a7fb"/>
      <path id="Trazado_1045823" data-name="Trazado 1045823" d="M57.875,350.964h6.188v13.407H57.875Z" transform="translate(-51.907 -293.665)" fill="#ffe177"/>
      <path id="Trazado_1045824" data-name="Trazado 1045824" d="M394.125,350.964h6.188v13.407h-6.188Z" transform="translate(-353.48 -293.665)" fill="#ffe177"/>
      <g id="Grupo_1201800" data-name="Grupo 1201800" transform="translate(0 23.532)">
        <path id="Trazado_1045825" data-name="Trazado 1045825" d="M52.028,56.526H35.722A14.234,14.234,0,0,0,42.07,45.574a24.287,24.287,0,0,0-.581-7.4.773.773,0,0,0-1.5.394,23.094,23.094,0,0,1,.532,6.907c-.68,6.254-6.918,13.981-13.738,10.037a.773.773,0,0,0-.774,0C19.22,59.44,12.955,51.732,12.275,45.474c-.282-5.638.741-9.359,3.129-11.375,2.16-1.824,5.6-2.275,10.223-1.344v2.228H23.988a.761.761,0,0,1-.514-.538.773.773,0,1,0-1.321.805,2.331,2.331,0,0,0,1.834,1.28h4.957A2.349,2.349,0,0,0,30.792,35.3a.773.773,0,1,0-1.257-.9c-.084.172-.365.587-.591.587H27.174V32.754c5.778-1.168,9.572-.214,11.588,2.91a.773.773,0,1,0,1.3-.839c-2.811-4.355-8.3-4.523-12.888-3.647a11.231,11.231,0,0,0-.035-1.459h2.076a4.949,4.949,0,0,0,4.944-4.944,1.245,1.245,0,0,0-1.244-1.244H30.571A4.952,4.952,0,0,0,25.9,26.846a5.4,5.4,0,0,0-4.144-1.936.773.773,0,0,0,0,1.547c2.544,0,4.062,2.38,3.867,4.72-5.02-.964-8.7-.393-11.222,1.739-2.784,2.352-3.986,6.492-3.674,12.657a14.235,14.235,0,0,0,6.348,10.952H.773A.773.773,0,0,0,0,57.3V70.706a.773.773,0,0,0,.773.773h33.61a.773.773,0,0,0,0-1.547H12.929V58.073H39.872v11.86H37.754a.773.773,0,0,0,0,1.547H52.028a.773.773,0,0,0,.773-.773V57.3A.773.773,0,0,0,52.028,56.526ZM30.571,25.079H32.6a3.4,3.4,0,0,1-3.384,3.094H27.188A3.4,3.4,0,0,1,30.571,25.079ZM11.382,69.933H6.741V65.688a.773.773,0,0,0-1.547,0v4.245H1.547V58.073H5.195v4.244a.773.773,0,0,0,1.547,0V58.073h4.641Zm34.677-11.86V69.933H41.419V58.073Zm5.2,11.86H47.606V58.073h3.648Z" transform="translate(0 -23.532)"/>
        <path id="Trazado_1045826" data-name="Trazado 1045826" d="M182.136,409.241a.773.773,0,0,0-.773-.773H162.273a.773.773,0,0,0,0,1.547h19.089A.773.773,0,0,0,182.136,409.241Z" transform="translate(-144.845 -368.77)"/>
      </g>
    </g>
  </g>
</svg>
