<svg xmlns="http://www.w3.org/2000/svg" xmlns:xlink="http://www.w3.org/1999/xlink" width="103" height="103" viewBox="0 0 103 103">
  <defs>
    <filter id="Trazado_982547" x="0" y="0" width="103" height="103" filterUnits="userSpaceOnUse">
      <feOffset dy="3" input="SourceAlpha"/>
      <feGaussianBlur stdDeviation="3" result="blur"/>
      <feFlood flood-opacity="0.161"/>
      <feComposite operator="in" in2="blur"/>
      <feComposite in="SourceGraphic"/>
    </filter>
  </defs>
  <g id="Grupo_1201811" data-name="Grupo 1201811" transform="translate(-817 -7016.297)">
    <g id="Grupo_1201768" data-name="Grupo 1201768" transform="translate(826 7022.297)">
      <g id="Grupo_1201328" data-name="Grupo 1201328">
        <g id="Grupo_1172010" data-name="Grupo 1172010">
          <g id="Grupo_1171046" data-name="Grupo 1171046">
            <g id="Grupo_1148525" data-name="Grupo 1148525">
              <g transform="matrix(1, 0, 0, 1, -9, -6)" filter="url(#Trazado_982547)">
                <g id="Trazado_982547-2" data-name="Trazado 982547" transform="translate(9 6)" fill="#fdfbec">
                  <path d="M 42.5 83.5 C 36.96437835693359 83.5 31.59512901306152 82.41617584228516 26.54141235351562 80.27863311767578 C 21.65934181213379 78.21369171142578 17.27447128295898 75.25723266601562 13.50862312316895 71.49137878417969 C 9.742764472961426 67.72553253173828 6.786305904388428 63.34066009521484 4.721364498138428 58.45858764648438 C 2.583823442459106 53.40486907958984 1.5 48.03562164306641 1.5 42.5 C 1.5 36.96437835693359 2.583823442459106 31.59512901306152 4.721364498138428 26.54141235351562 C 6.786305904388428 21.65934181213379 9.742764472961426 17.27448272705078 13.50862312316895 13.50862312316895 C 17.27447128295898 9.742776870727539 21.65934181213379 6.786305904388428 26.54141235351562 4.721364498138428 C 31.59512901306152 2.583823442459106 36.96437835693359 1.5 42.5 1.5 C 48.03562164306641 1.5 53.40486907958984 2.583823442459106 58.45858764648438 4.721364498138428 C 63.34066009521484 6.786305904388428 67.72553253173828 9.742776870727539 71.49137878417969 13.50862312316895 C 75.25723266601562 17.27448272705078 78.21369171142578 21.65934181213379 80.27863311767578 26.54141235351562 C 82.41617584228516 31.59512901306152 83.5 36.96437835693359 83.5 42.5 C 83.5 48.03562164306641 82.41617584228516 53.40486907958984 80.27863311767578 58.45858764648438 C 78.21369171142578 63.34066009521484 75.25723266601562 67.72553253173828 71.49137878417969 71.49137878417969 C 67.72553253173828 75.25723266601562 63.34066009521484 78.21369171142578 58.45858764648438 80.27863311767578 C 53.40486907958984 82.41617584228516 48.03562164306641 83.5 42.5 83.5 Z" stroke="none"/>
                  <path d="M 42.5 3 C 37.16621398925781 3 31.99356079101562 4.043960571289062 27.125732421875 6.102882385253906 C 22.42246627807617 8.092185974121094 18.19785308837891 10.94070434570312 14.56928253173828 14.56928253173828 C 10.94070434570312 18.19785308837891 8.092185974121094 22.42246627807617 6.102882385253906 27.125732421875 C 4.043960571289062 31.99356079101562 3 37.16621398925781 3 42.5 C 3 47.83378601074219 4.043960571289062 53.00643920898438 6.102882385253906 57.87425231933594 C 8.092185974121094 62.57753372192383 10.94070434570312 66.80213165283203 14.56928253173828 70.43071746826172 C 18.19786834716797 74.05929565429688 22.42246627807617 76.90781402587891 27.125732421875 78.89711761474609 C 31.99356079101562 80.95603942871094 37.16621398925781 82 42.5 82 C 47.83378601074219 82 53.00642395019531 80.95603942871094 57.87425231933594 78.89711761474609 C 62.57753372192383 76.90781402587891 66.80213165283203 74.05929565429688 70.43071746826172 70.43071746826172 C 74.05929565429688 66.80213165283203 76.90781402587891 62.57753372192383 78.89711761474609 57.87425231933594 C 80.95603942871094 53.00642395019531 82 47.83378601074219 82 42.5 C 82 37.16621398925781 80.95603942871094 31.99356079101562 78.89711761474609 27.125732421875 C 76.90781402587891 22.42246627807617 74.05929565429688 18.19786834716797 70.43071746826172 14.56928253173828 C 66.80213165283203 10.94070434570312 62.57753372192383 8.092185974121094 57.87425231933594 6.102882385253906 C 53.00643920898438 4.043960571289062 47.83378601074219 3 42.5 3 M 42.5 0 C 65.97209167480469 0 85 19.02789306640625 85 42.5 C 85 65.97209167480469 65.97209167480469 85 42.5 85 C 19.02789306640625 85 0 65.97209167480469 0 42.5 C 0 19.02789306640625 19.02789306640625 0 42.5 0 Z" stroke="none" fill="#83793c"/>
                </g>
              </g>
            </g>
          </g>
        </g>
      </g>
    </g>
    <g id="healthcare_2449846" transform="translate(822.86 7037.5)">
      <g id="Grupo_1201809" data-name="Grupo 1201809" transform="translate(20.54 0.802)">
        <path id="Trazado_1045847" data-name="Trazado 1045847" d="M237.467,420.477h-.75" transform="translate(-213.596 -376.308)" fill="none" stroke="#000" stroke-linecap="round" stroke-linejoin="round" stroke-miterlimit="10" stroke-width="15"/>
        <g id="Grupo_1201805" data-name="Grupo 1201805" transform="translate(2.598 35.461)">
          <g id="XMLID_395_">
            <g id="Grupo_1201804" data-name="Grupo 1201804">
              <path id="Trazado_1045848" data-name="Trazado 1045848" d="M79.356,346.309l8.68-5.051a2.392,2.392,0,0,1,2.647,3.975L77.747,355.02a7.749,7.749,0,0,1-4.673,1.568H70.5a7.744,7.744,0,0,1-2.987-.6L58,352.011h-7.23l-5.94.018V341.793h8.443a9.33,9.33,0,0,1,6.6-2.733h.214a9.328,9.328,0,0,1,6.6,2.733l.55.549h7.072a5.284,5.284,0,0,1,4.963,3.466A1.458,1.458,0,0,1,79.356,346.309Z" transform="translate(-44.834 -339.06)" fill="#ffe6c4"/>
            </g>
            <path id="Trazado_1045849" data-name="Trazado 1045849" d="M90.824,362.185c-.045.04-.092.079-.141.116l-12.937,9.786a7.749,7.749,0,0,1-4.673,1.568H70.5a7.744,7.744,0,0,1-2.987-.6l-9.253-3.869a1.39,1.39,0,0,0-.537-.108H50.774l-5.94.018v3.584l5.94-.018H58l9.51,3.977a7.743,7.743,0,0,0,2.987.6h2.572a7.749,7.749,0,0,0,4.673-1.568l12.937-9.786a2.393,2.393,0,0,0,.141-3.7Z" transform="translate(-44.834 -359.712)" fill="#fed3a7"/>
          </g>
        </g>
        <path id="Trazado_1045850" data-name="Trazado 1045850" d="M35.733,356.205v-3.71h.044v-7.24a1.7,1.7,0,0,0-1.695-1.695H28.04v14.721h6.042a1.7,1.7,0,0,0,1.695-1.695v-.425Z" transform="translate(-27.238 -307.617)" fill="#d4f2f6"/>
        <path id="Trazado_1045851" data-name="Trazado 1045851" d="M34.082,425.193H28.04v4.477h6.042a1.7,1.7,0,0,0,1.695-1.695V423.5A1.7,1.7,0,0,1,34.082,425.193Z" transform="translate(-27.238 -379.006)" fill="#a7e6ef"/>
        <g id="Grupo_1201806" data-name="Grupo 1201806" transform="translate(0 33.528)">
          <path id="Trazado_1045852" data-name="Trazado 1045852" d="M21.342,340.543a.8.8,0,0,1-.8-.8V321.783a.8.8,0,1,1,1.6,0V339.74A.8.8,0,0,1,21.342,340.543Z" transform="translate(-20.54 -320.981)" fill="#a7e6ef"/>
        </g>
        <path id="Trazado_1045853" data-name="Trazado 1045853" d="M113.369,10.666a10.808,10.808,0,0,0-15.285,0l-.273.273-.273-.273A10.808,10.808,0,0,0,82.253,25.951L95.926,39.624a2.665,2.665,0,0,0,3.769,0l13.674-13.674a10.808,10.808,0,0,0,0-15.285Z" transform="translate(-72.825 -7.5)" fill="#fd828a"/>
        <g id="Grupo_1201807" data-name="Grupo 1201807" transform="translate(6.262 0)">
          <path id="Trazado_1045854" data-name="Trazado 1045854" d="M88.881,25.953A10.812,10.812,0,0,1,93.21,8.02,10.81,10.81,0,0,0,82.253,25.953L95.926,39.626a2.665,2.665,0,0,0,3.769,0l1.43-1.43Z" transform="translate(-79.087 -7.502)" fill="#fd6773"/>
        </g>
        <circle id="Elipse_12477" data-name="Elipse 12477" cx="9.606" cy="9.606" r="9.606" transform="translate(15.384 6.411)" fill="#f9f7f8"/>
        <path id="Trazado_1045855" data-name="Trazado 1045855" d="M166.66,175.733q-.25-.25-.479-.512a9.617,9.617,0,0,0,7.45,7.483Z" transform="translate(-150.604 -157.283)" fill="#efedef"/>
        <g id="Grupo_1201808" data-name="Grupo 1201808" transform="translate(4.094 11.292)">
          <path id="Trazado_1045856" data-name="Trazado 1045856" d="M215.809,116.282h-2.8v-2.8a.411.411,0,0,0-.411-.411h-3.083a.411.411,0,0,0-.411.411v2.8h-2.8a.411.411,0,0,0-.411.411v3.083a.411.411,0,0,0,.411.411h2.8v2.8a.411.411,0,0,0,.411.411H212.6a.411.411,0,0,0,.411-.411v-2.8h2.8a.411.411,0,0,0,.411-.411v-3.083A.411.411,0,0,0,215.809,116.282Z" transform="translate(-190.167 -113.074)" fill="#fd828a"/>
          <path id="Trazado_1045857" data-name="Trazado 1045857" d="M385.483,243.321H383.7v-1.784a.456.456,0,0,0-.456-.456h-2.348a.456.456,0,0,0-.456.456v1.784h-1.784a.456.456,0,0,0-.456.456v2.348a.456.456,0,0,0,.456.456h1.784v1.784a.456.456,0,0,0,.456.456h2.348a.456.456,0,0,0,.456-.456v-1.784h1.784a.456.456,0,0,0,.456-.456v-2.348A.456.456,0,0,0,385.483,243.321Z" transform="translate(-344.039 -227.39)" fill="#fd828a"/>
          <path id="Trazado_1045858" data-name="Trazado 1045858" d="M59.27,243.321h1.784v-1.784a.456.456,0,0,1,.456-.456h2.348a.456.456,0,0,1,.456.456v1.784H66.1a.456.456,0,0,1,.456.456v2.348a.456.456,0,0,1-.456.456H64.315v1.784a.456.456,0,0,1-.456.456H61.51a.456.456,0,0,1-.456-.456v-1.784H59.27a.456.456,0,0,1-.456-.456v-2.348A.456.456,0,0,1,59.27,243.321Z" transform="translate(-58.814 -227.39)" fill="#fd828a"/>
        </g>
      </g>
      <g id="Grupo_1201810" data-name="Grupo 1201810" transform="translate(20.54 0)">
        <path id="Trazado_1045859" data-name="Trazado 1045859" d="M230.769,412.977h-.75a.8.8,0,0,0,0,1.6h.75a.8.8,0,0,0,0-1.6Z" transform="translate(-206.898 -368.808)"/>
        <path id="Trazado_1045860" data-name="Trazado 1045860" d="M70.017,325.156a3.18,3.18,0,0,0-4.079-.738l-7.792,4.534a6.111,6.111,0,0,0-5.537-3.559h-6.74l-.314-.314a10.065,10.065,0,0,0-7.164-2.967h-.213a10.059,10.059,0,0,0-6.921,2.732H29.869a2.5,2.5,0,0,0-2.485-2.251h-5.24v-.811a.8.8,0,1,0-1.6,0V339.74a.8.8,0,1,0,1.6,0v-.822h5.24a2.5,2.5,0,0,0,2.485-2.251h6.279l9.361,3.915a8.5,8.5,0,0,0,3.3.662h2.571a8.6,8.6,0,0,0,5.157-1.731l12.937-9.786a3.194,3.194,0,0,0,.545-4.57Zm-.893,2.211a1.577,1.577,0,0,1-.619,1.08l-12.937,9.786a6.984,6.984,0,0,1-4.189,1.406H48.807a6.907,6.907,0,0,1-2.679-.538l-9.509-3.977a.8.8,0,0,0-.31-.062H29.881v-3.685a.8.8,0,1,0-1.6,0v5.044a.893.893,0,0,1-.892.892h-5.24V324.2h5.24a.893.893,0,0,1,.892.892v2.869a.8.8,0,0,0,1.6,0v-1.51h1.7a.8.8,0,0,0,.567-.235,8.471,8.471,0,0,1,6.03-2.5h.213a8.471,8.471,0,0,1,6.029,2.5l.549.549a.8.8,0,0,0,.567.235h7.072a4.5,4.5,0,0,1,4.209,2.94.656.656,0,0,1-.616.882H47.261a.8.8,0,1,0,0,1.6H56.2a2.263,2.263,0,0,0,2.2-1.767l8.338-4.852a1.59,1.59,0,0,1,2.378,1.562Z" transform="translate(-20.54 -286.65)"/>
        <path id="Trazado_1045861" data-name="Trazado 1045861" d="M88.661,33.494a3.467,3.467,0,0,0,4.9,0l4.274-4.274A.8.8,0,0,0,96.7,28.085L92.43,32.359a1.863,1.863,0,0,1-2.635,0L76.122,18.686A10.006,10.006,0,1,1,90.273,4.535l.273.273a.8.8,0,0,0,1.134,0l.273-.273A10.006,10.006,0,1,1,106.1,18.686l-6.949,6.949a.8.8,0,1,0,1.134,1.134l6.949-6.949a11.61,11.61,0,0,0-16.125-16.7,11.61,11.61,0,0,0-16.125,16.7Z" transform="translate(-66.127 0)"/>
        <path id="Trazado_1045862" data-name="Trazado 1045862" d="M159.409,72.314a.8.8,0,1,0-1.564.357,10.412,10.412,0,1,0-.17-3.7.8.8,0,0,0,1.59.211,8.8,8.8,0,1,1,8.726,9.971,8.7,8.7,0,0,1-5.526-1.95A8.838,8.838,0,0,1,159.409,72.314Z" transform="translate(-143.002 -53.528)"/>
        <path id="Trazado_1045863" data-name="Trazado 1045863" d="M205.9,105.575H202.82a1.215,1.215,0,0,0-1.213,1.213v1.995h-2A1.215,1.215,0,0,0,198.4,110v3.083a1.215,1.215,0,0,0,1.213,1.213h2v1.995a1.215,1.215,0,0,0,1.213,1.213H205.9a1.215,1.215,0,0,0,1.213-1.213v-1.995h1.995a1.215,1.215,0,0,0,1.213-1.213V110a1.215,1.215,0,0,0-1.213-1.213h-1.995v-1.995A1.215,1.215,0,0,0,205.9,105.575Zm2.817,4.812v2.3h-2.406a.8.8,0,0,0-.8.8V115.9h-2.3v-2.406a.8.8,0,0,0-.8-.8H200v-2.3h2.406a.8.8,0,0,0,.8-.8v-2.406h2.3v2.406a.8.8,0,0,0,.8.8Z" transform="translate(-179.376 -94.283)"/>
        <path id="Trazado_1045864" data-name="Trazado 1045864" d="M376.545,233.581H374.2a1.26,1.26,0,0,0-1.258,1.258v.982h-.982a1.26,1.26,0,0,0-1.258,1.258v2.348a1.26,1.26,0,0,0,1.258,1.258h.982v.982a1.26,1.26,0,0,0,1.258,1.258h2.348a1.26,1.26,0,0,0,1.258-1.258v-.982h.982a1.26,1.26,0,0,0,1.258-1.258v-2.348a1.26,1.26,0,0,0-1.258-1.258H377.8v-.982A1.26,1.26,0,0,0,376.545,233.581Zm1.894,3.844v1.657H377a.8.8,0,0,0-.8.8v1.438h-1.657v-1.438a.8.8,0,0,0-.8-.8H372.3v-1.657h1.438a.8.8,0,0,0,.8-.8v-1.438H376.2v1.438a.8.8,0,0,0,.8.8Z" transform="translate(-333.247 -208.599)"/>
        <path id="Trazado_1045865" data-name="Trazado 1045865" d="M52.572,240.686h.982v.982a1.26,1.26,0,0,0,1.258,1.258h2.348a1.26,1.26,0,0,0,1.258-1.258v-.982H59.4a1.26,1.26,0,0,0,1.258-1.258v-2.348a1.26,1.26,0,0,0-1.258-1.258h-.982v-.982a1.26,1.26,0,0,0-1.258-1.258H54.812a1.26,1.26,0,0,0-1.258,1.258v.982h-.982a1.26,1.26,0,0,0-1.258,1.258v2.348A1.26,1.26,0,0,0,52.572,240.686Zm.346-3.261h1.438a.8.8,0,0,0,.8-.8v-1.438h1.657v1.438a.8.8,0,0,0,.8.8h1.438v1.657H57.617a.8.8,0,0,0-.8.8v1.438H55.158v-1.438a.8.8,0,0,0-.8-.8H52.918Z" transform="translate(-48.023 -208.599)"/>
      </g>
    </g>
  </g>
</svg>
