<svg xmlns="http://www.w3.org/2000/svg" xmlns:xlink="http://www.w3.org/1999/xlink" width="103" height="103" viewBox="0 0 103 103">
  <defs>
    <filter id="Trazado_982547" x="0" y="0" width="103" height="103" filterUnits="userSpaceOnUse">
      <feOffset dy="3" input="SourceAlpha"/>
      <feGaussianBlur stdDeviation="3" result="blur"/>
      <feFlood flood-opacity="0.161"/>
      <feComposite operator="in" in2="blur"/>
      <feComposite in="SourceGraphic"/>
    </filter>
  </defs>
  <g id="Grupo_1201822" data-name="Grupo 1201822" transform="translate(-1131 -7016.297)">
    <g id="Grupo_1201770" data-name="Grupo 1201770" transform="translate(1140 7022.297)">
      <g id="Grupo_1201328" data-name="Grupo 1201328">
        <g id="Grupo_1172010" data-name="Grupo 1172010">
          <g id="Grupo_1171046" data-name="Grupo 1171046">
            <g id="Grupo_1148525" data-name="Grupo 1148525">
              <g transform="matrix(1, 0, 0, 1, -9, -6)" filter="url(#Trazado_982547)">
                <g id="Trazado_982547-2" data-name="Trazado 982547" transform="translate(9 6)" fill="#fdfbec">
                  <path d="M 42.5 83.5 C 36.96437835693359 83.5 31.59512901306152 82.41617584228516 26.54141235351562 80.27863311767578 C 21.65934181213379 78.21369171142578 17.27447128295898 75.25723266601562 13.50862312316895 71.49137878417969 C 9.742764472961426 67.72553253173828 6.786305904388428 63.34066009521484 4.721364498138428 58.45858764648438 C 2.583823442459106 53.40486907958984 1.5 48.03562164306641 1.5 42.5 C 1.5 36.96437835693359 2.583823442459106 31.59512901306152 4.721364498138428 26.54141235351562 C 6.786305904388428 21.65934181213379 9.742764472961426 17.27448272705078 13.50862312316895 13.50862312316895 C 17.27447128295898 9.742776870727539 21.65934181213379 6.786305904388428 26.54141235351562 4.721364498138428 C 31.59512901306152 2.583823442459106 36.96437835693359 1.5 42.5 1.5 C 48.03562164306641 1.5 53.40486907958984 2.583823442459106 58.45858764648438 4.721364498138428 C 63.34066009521484 6.786305904388428 67.72553253173828 9.742776870727539 71.49137878417969 13.50862312316895 C 75.25723266601562 17.27448272705078 78.21369171142578 21.65934181213379 80.27863311767578 26.54141235351562 C 82.41617584228516 31.59512901306152 83.5 36.96437835693359 83.5 42.5 C 83.5 48.03562164306641 82.41617584228516 53.40486907958984 80.27863311767578 58.45858764648438 C 78.21369171142578 63.34066009521484 75.25723266601562 67.72553253173828 71.49137878417969 71.49137878417969 C 67.72553253173828 75.25723266601562 63.34066009521484 78.21369171142578 58.45858764648438 80.27863311767578 C 53.40486907958984 82.41617584228516 48.03562164306641 83.5 42.5 83.5 Z" stroke="none"/>
                  <path d="M 42.5 3 C 37.16621398925781 3 31.99356079101562 4.043960571289062 27.125732421875 6.102882385253906 C 22.42246627807617 8.092185974121094 18.19785308837891 10.94070434570312 14.56928253173828 14.56928253173828 C 10.94070434570312 18.19785308837891 8.092185974121094 22.42246627807617 6.102882385253906 27.125732421875 C 4.043960571289062 31.99356079101562 3 37.16621398925781 3 42.5 C 3 47.83378601074219 4.043960571289062 53.00643920898438 6.102882385253906 57.87425231933594 C 8.092185974121094 62.57753372192383 10.94070434570312 66.80213165283203 14.56928253173828 70.43071746826172 C 18.19786834716797 74.05929565429688 22.42246627807617 76.90781402587891 27.125732421875 78.89711761474609 C 31.99356079101562 80.95603942871094 37.16621398925781 82 42.5 82 C 47.83378601074219 82 53.00642395019531 80.95603942871094 57.87425231933594 78.89711761474609 C 62.57753372192383 76.90781402587891 66.80213165283203 74.05929565429688 70.43071746826172 70.43071746826172 C 74.05929565429688 66.80213165283203 76.90781402587891 62.57753372192383 78.89711761474609 57.87425231933594 C 80.95603942871094 53.00642395019531 82 47.83378601074219 82 42.5 C 82 37.16621398925781 80.95603942871094 31.99356079101562 78.89711761474609 27.125732421875 C 76.90781402587891 22.42246627807617 74.05929565429688 18.19786834716797 70.43071746826172 14.56928253173828 C 66.80213165283203 10.94070434570312 62.57753372192383 8.092185974121094 57.87425231933594 6.102882385253906 C 53.00643920898438 4.043960571289062 47.83378601074219 3 42.5 3 M 42.5 0 C 65.97209167480469 0 85 19.02789306640625 85 42.5 C 85 65.97209167480469 65.97209167480469 85 42.5 85 C 19.02789306640625 85 0 65.97209167480469 0 42.5 C 0 19.02789306640625 19.02789306640625 0 42.5 0 Z" stroke="none" fill="#83793c"/>
                </g>
              </g>
            </g>
          </g>
        </g>
      </g>
    </g>
    <g id="patient_706217" transform="translate(1120.999 7031.166)">
      <path id="Trazado_1045866" data-name="Trazado 1045866" d="M265.34,387.647v.482h3.884v-2.394h-6.6v.679a1.285,1.285,0,0,1,.38-.057h1.049A1.288,1.288,0,0,1,265.34,387.647Z" transform="translate(-199.351 -340.78)" fill="#fcdb67"/>
      <path id="Trazado_1045867" data-name="Trazado 1045867" d="M236.069,172.4a8.242,8.242,0,0,1-1.322-.107,1.155,1.155,0,0,0-.016.182v.73a1.169,1.169,0,0,0,1.165,1.165h.345a1.169,1.169,0,0,0,1.165-1.165v-.73a1.153,1.153,0,0,0-.016-.182A8.242,8.242,0,0,1,236.069,172.4Z" transform="translate(-174.709 -152.217)" fill="#ef5050"/>
      <ellipse id="Elipse_12478" data-name="Elipse 12478" cx="8.878" cy="9.657" rx="8.878" ry="9.657" transform="translate(52.482 0.874)" fill="#fb8276"/>
      <path id="Trazado_1045868" data-name="Trazado 1045868" d="M225.734,37.82s1.519,2.632,1.519,2.632h1.734s1.518-2.632,1.519-2.632Z" transform="translate(-166.76 -33.412)" fill="#fff"/>
      <g id="Grupo_1201812" data-name="Grupo 1201812" transform="translate(52.482 0.874)" opacity="0.1">
        <path id="Trazado_1045869" data-name="Trazado 1045869" d="M172.475,17.156c0-4.882,3.331-8.915,7.656-9.563a8.248,8.248,0,0,0-1.222-.093c-4.9,0-8.878,4.323-8.878,9.656s3.975,9.657,8.878,9.657a8.232,8.232,0,0,0,1.222-.093C175.806,26.072,172.475,22.039,172.475,17.156Z" transform="translate(-170.031 -7.5)"/>
      </g>
      <g id="Grupo_1201813" data-name="Grupo 1201813" transform="translate(57.679 4.408)">
        <path id="Trazado_1045870" data-name="Trazado 1045870" d="M216.79,95.9,214.7,99.536c-.16.278-.03.485.29.46l.472-.037a.887.887,0,0,1,.818.487l.169.378c.13.293.368.305.528.027l1.336-2.317Z" transform="translate(-214.627 -89.133)" fill="#48c1e1"/>
        <path id="Trazado_1045871" data-name="Trazado 1045871" d="M247.728,44.589l2.095-3.634a1.121,1.121,0,0,0,0-1.01l-.934-1.62-.292-.506s-.132.226-.292.5l-2.094,3.632Z" transform="translate(-242.529 -37.82)" fill="#48c1e1"/>
      </g>
      <path id="Trazado_1045872" data-name="Trazado 1045872" d="M215.237,38.326l.292-.506s.132.226.292.5l5.706,9.9c.16.278.03.485-.29.46l-.472-.037a.887.887,0,0,0-.818.487l-.169.378c-.13.293-.368.305-.528.027L214.3,40.956a1.121,1.121,0,0,1,0-1.01Z" transform="translate(-156.556 -33.412)" fill="#a2dff9"/>
      <g id="Grupo_1201814" data-name="Grupo 1201814" transform="translate(59.65 43.183)">
        <path id="Trazado_1045873" data-name="Trazado 1045873" d="M258.466,392.358c0,.466,0,3.931,0,4.4a1.288,1.288,0,0,1-1.287,1.29H256.13a7.931,7.931,0,0,0-1.287-3.489,1.289,1.289,0,0,0,0-2.2,1.289,1.289,0,0,1,1.287-1.29h1.049A1.288,1.288,0,0,1,258.466,392.358Z" transform="translate(-252.127 -388.674)" fill="#ffd5b3"/>
        <path id="Trazado_1045874" data-name="Trazado 1045874" d="M234.254,376.411a1.289,1.289,0,0,0,0-2.2,1.29,1.29,0,0,1,.907-1.233v-1.161a1.288,1.288,0,0,0-1.287-1.29h-1.049a7.933,7.933,0,0,1-1.287,3.489,1.289,1.289,0,0,1,0,2.2,1.289,1.289,0,0,0,1.287,1.29h1.049a1.278,1.278,0,0,0,.723-.223A1.283,1.283,0,0,1,234.254,376.411Z" transform="translate(-231.538 -370.529)" fill="#ffd5b3"/>
      </g>
      <path id="Trazado_1045875" data-name="Trazado 1045875" d="M333.748,321.934h-4.3a7.571,7.571,0,0,1-1.069.414v.768a2.094,2.094,0,1,1-4.189,0v-.707h0a7.55,7.55,0,0,1-1.282-.475h-2.538a1.119,1.119,0,0,0-1.115,1.116v8.713H322.7a6.331,6.331,0,0,0,5.276-2.595,8.929,8.929,0,0,0,1.444-2.862,1.809,1.809,0,1,1,3.514.863,12.258,12.258,0,0,1-1.985,4.069,9.914,9.914,0,0,1-8.249,4.148h-3.448v6.708a1.119,1.119,0,0,0,1.115,1.116h13.378a1.119,1.119,0,0,0,1.115-1.116V323.05A1.119,1.119,0,0,0,333.748,321.934Z" transform="translate(-249.383 -284.415)" fill="#ffc502"/>
      <g id="Grupo_1201815" data-name="Grupo 1201815" transform="translate(69.873 37.519)" opacity="0.1">
        <path id="Trazado_1045876" data-name="Trazado 1045876" d="M321.684,331.762v-8.713a1.119,1.119,0,0,1,1.115-1.116h-2.427a1.119,1.119,0,0,0-1.115,1.116v8.713Z" transform="translate(-319.257 -321.933)"/>
        <path id="Trazado_1045877" data-name="Trazado 1045877" d="M321.684,444.069v-6.708h-2.427v6.708a1.119,1.119,0,0,0,1.115,1.116H322.8A1.119,1.119,0,0,1,321.684,444.069Z" transform="translate(-319.257 -423.909)"/>
      </g>
      <path id="Trazado_1045878" data-name="Trazado 1045878" d="M302.164,347.655a1.8,1.8,0,0,0-2.183,1.329,8.925,8.925,0,0,1-1.444,2.862,6.331,6.331,0,0,1-5.276,2.595h-7.332c0,.934,0,2.844,0,3.623h7.332a9.913,9.913,0,0,0,8.249-4.148,12.256,12.256,0,0,0,1.985-4.069A1.815,1.815,0,0,0,302.164,347.655Z" transform="translate(-219.939 -307.093)" fill="#fcdb67"/>
      <g id="Grupo_1201816" data-name="Grupo 1201816" transform="translate(66.91 27.088)">
        <path id="Trazado_1045879" data-name="Trazado 1045879" d="M363.579,325.809a7.6,7.6,0,0,1-1.988-.265v.707a2.094,2.094,0,1,0,4.189,0v-.768A7.582,7.582,0,0,1,363.579,325.809Z" transform="translate(-353.694 -314.638)" fill="#ffb98a"/>
        <path id="Trazado_1045880" data-name="Trazado 1045880" d="M444.446,232.428h-.739v3.381a7.93,7.93,0,0,1-.117,1.345h.856a1.942,1.942,0,0,0,1.934-1.939v-.848A1.942,1.942,0,0,0,444.446,232.428Z" transform="translate(-426.137 -232.428)" fill="#ffb98a"/>
        <path id="Trazado_1045881" data-name="Trazado 1045881" d="M296.032,235.808v-3.381h-.267a1.942,1.942,0,0,0-1.934,1.939v.848a1.942,1.942,0,0,0,1.934,1.939h.383A7.929,7.929,0,0,1,296.032,235.808Z" transform="translate(-293.831 -232.427)" fill="#ffb98a"/>
      </g>
      <path id="Trazado_1045882" data-name="Trazado 1045882" d="M312.715,183.229a7.738,7.738,0,0,0,7.685,7.79h0a7.738,7.738,0,0,0,7.685-7.79v-4.637c0-4.3-3.44-5.68-7.685-5.68h0c-4.244,0-7.685,1.378-7.685,5.68v4.637Z" transform="translate(-243.604 -152.76)" fill="#ffd5b3"/>
      <path id="Trazado_1045883" data-name="Trazado 1045883" d="M324.966,144.669h-2.048a3.11,3.11,0,0,0-2.655-1.5h-6.806a.747.747,0,0,0-.742.752v8.394c0-4.3,3.441-5.68,7.685-5.68s7.685,1.378,7.685,5.68V147.83A3.14,3.14,0,0,0,324.966,144.669Z" transform="translate(-243.604 -126.479)" fill="#f7931e"/>
      <g id="Grupo_1201817" data-name="Grupo 1201817" transform="translate(69.111 16.685)" opacity="0.1">
        <path id="Trazado_1045884" data-name="Trazado 1045884" d="M315.134,147.757v-3.841a.747.747,0,0,1,.742-.752h-2.419a.747.747,0,0,0-.742.752v8.394A4.882,4.882,0,0,1,315.134,147.757Z" transform="translate(-312.715 -143.164)"/>
      </g>
      <g id="Grupo_1201818" data-name="Grupo 1201818" transform="translate(69.11 20.152)" opacity="0.1">
        <path id="Trazado_1045885" data-name="Trazado 1045885" d="M315.093,183.229v-4.637c0-3.892,2.816-5.39,6.5-5.641q-.582-.04-1.189-.039c-4.244,0-7.685,1.378-7.685,5.68v4.637a7.738,7.738,0,0,0,7.685,7.79,7.627,7.627,0,0,0,1.189-.093A7.76,7.76,0,0,1,315.093,183.229Z" transform="translate(-312.714 -172.912)"/>
      </g>
      <path id="Trazado_1045886" data-name="Trazado 1045886" d="M258.466,392.358c0,.466,0,3.931,0,4.4a1.288,1.288,0,0,1-1.287,1.29H256.13a7.931,7.931,0,0,0-1.287-3.489,1.289,1.289,0,0,0,0-2.2,1.289,1.289,0,0,1,1.287-1.29h1.049A1.288,1.288,0,0,1,258.466,392.358Z" transform="translate(-192.477 -345.492)" fill="#ffd5b3"/>
      <path id="Trazado_1045887" data-name="Trazado 1045887" d="M68.771,362.892H67.228a6.508,6.508,0,0,1-11.535,0H53.811a1.675,1.675,0,0,0-1.672,1.675v14.27a.558.558,0,0,0,.557.558H69.885a.558.558,0,0,0,.557-.558v-14.27A1.675,1.675,0,0,0,68.771,362.892Z" transform="translate(-13.397 -320.599)" fill="#a2dff9"/>
      <path id="Trazado_1045888" data-name="Trazado 1045888" d="M54.337,378.837v-14.27a1.675,1.675,0,0,1,1.672-1.675h-2.2a1.675,1.675,0,0,0-1.672,1.675v14.27a.558.558,0,0,0,.557.558h2.2A.558.558,0,0,1,54.337,378.837Z" transform="translate(-13.397 -320.599)" opacity="0.1"/>
      <path id="Trazado_1045889" data-name="Trazado 1045889" d="M90.462,351.965a6.9,6.9,0,0,1-4.121,0v1.273H82.634a6.508,6.508,0,0,0,11.535,0H90.462v-1.273Z" transform="translate(-40.338 -310.946)" fill="#ffb98a"/>
      <path id="Trazado_1045890" data-name="Trazado 1045890" d="M109.39,151.047a7.176,7.176,0,0,1,2.065.3,3.566,3.566,0,0,0,.934-2.439.379.379,0,0,0-.378-.38h-5.241a.379.379,0,0,0-.378.38,3.566,3.566,0,0,0,.934,2.439A7.179,7.179,0,0,1,109.39,151.047Z" transform="translate(-61.326 -131.222)" fill="#775436"/>
      <path id="Trazado_1045891" data-name="Trazado 1045891" d="M109.39,151.046l.089,0a3.607,3.607,0,0,1-.686-2.138.379.379,0,0,1,.378-.38h-2.4a.379.379,0,0,0-.378.38,3.566,3.566,0,0,0,.934,2.439A7.184,7.184,0,0,1,109.39,151.046Z" transform="translate(-61.326 -131.221)" opacity="0.1"/>
      <g id="Grupo_1201819" data-name="Grupo 1201819" transform="translate(37.849 32.173)">
        <path id="Trazado_1045892" data-name="Trazado 1045892" d="M46.96,276.945v-.885h-.382a2.111,2.111,0,0,0,0,4.221h1.077A8.466,8.466,0,0,1,46.96,276.945Z" transform="translate(-44.472 -276.06)" fill="#ffb98a"/>
        <path id="Trazado_1045893" data-name="Trazado 1045893" d="M193.543,276.06h-.382v.885a8.467,8.467,0,0,1-.695,3.336h1.077a2.111,2.111,0,0,0,0-4.221Z" transform="translate(-175.218 -276.06)" fill="#ffb98a"/>
      </g>
      <path id="Trazado_1045894" data-name="Trazado 1045894" d="M80.965,267.553H66.126a1.808,1.808,0,0,1-.308-.028v1.88c0,4.357,3.46,8.276,7.727,8.276s7.727-3.919,7.727-8.276v-1.88A1.807,1.807,0,0,1,80.965,267.553Z" transform="translate(-25.482 -236.347)" fill="#ffd5b3"/>
      <g id="Grupo_1201820" data-name="Grupo 1201820" transform="translate(40.336 31.178)" opacity="0.1">
        <path id="Trazado_1045895" data-name="Trazado 1045895" d="M68.216,269.4v-1.852h-2.09a1.808,1.808,0,0,1-.308-.028v1.88c0,4.357,3.46,8.276,7.727,8.276a6.924,6.924,0,0,0,1.2-.1A8.3,8.3,0,0,1,68.216,269.4Z" transform="translate(-65.818 -267.524)"/>
      </g>
      <path id="Trazado_1045896" data-name="Trazado 1045896" d="M63.691,178.131H78.53a1.791,1.791,0,0,1,.629.115c-.484-4.582-3.9-8.134-8.048-8.134s-7.565,3.552-8.048,8.134A1.793,1.793,0,0,1,63.691,178.131Z" transform="translate(-23.047 -150.286)" fill="#c6a07d"/>
      <path id="Trazado_1045897" data-name="Trazado 1045897" d="M63.692,178.132h1.767c.476-4.081,3.283-7.32,6.845-7.919a7.176,7.176,0,0,0-1.192-.1c-4.147,0-7.565,3.552-8.048,8.134A1.79,1.79,0,0,1,63.692,178.132Z" transform="translate(-23.048 -150.287)" opacity="0.1"/>
      <path id="Trazado_1045898" data-name="Trazado 1045898" d="M71.793,240.6a1.72,1.72,0,0,1-1.748,1.681H55.205a1.682,1.682,0,1,1,0-3.361h14.84A1.72,1.72,0,0,1,71.793,240.6Z" transform="translate(-14.561 -211.079)" fill="#775436"/>
      <g id="Grupo_1201821" data-name="Grupo 1201821" transform="translate(38.896 27.845)" opacity="0.1">
        <path id="Trazado_1045899" data-name="Trazado 1045899" d="M57.094,240.6a1.72,1.72,0,0,1,1.748-1.681H55.205a1.682,1.682,0,1,0,0,3.361h3.637A1.72,1.72,0,0,1,57.094,240.6Z" transform="translate(-53.457 -238.924)"/>
      </g>
      <path id="Trazado_1045900" data-name="Trazado 1045900" d="M77.767,402.179a1.251,1.251,0,0,1-1.25-1.253c0-.207,0-1.026,0-1.9a3.82,3.82,0,0,1-7.524-.947v-3.141a1.566,1.566,0,1,0-3.133,0v3.141a6.948,6.948,0,0,0,12.577,4.1Z" transform="translate(-25.52 -347.527)" fill="#48c1e1"/>
      <path id="Trazado_1045901" data-name="Trazado 1045901" d="M157.3,416.323c0-.452,0-3.818,0-4.27a1.251,1.251,0,0,1,1.25-1.253h1.019a7.7,7.7,0,0,0,1.25,3.388,1.252,1.252,0,0,0,0,2.135,1.252,1.252,0,0,1-1.25,1.253H158.55A1.251,1.251,0,0,1,157.3,416.323Z" transform="translate(-106.302 -362.924)" fill="#ffd5b3"/>
      <path id="Trazado_1045902" data-name="Trazado 1045902" d="M215.668,32.878l-.934-1.62c-.422-.732-.422-.732-.657-.85a.875.875,0,0,0-.391-.093h-4.774a.874.874,0,0,0-.39.092c-.236.118-.236.118-.659.851l-.934,1.62a2,2,0,0,0,0,1.883l1.843,3.2-1.843,3.2a1.187,1.187,0,0,0-.039,1.21,1.168,1.168,0,0,0,1.035.562c.038,0,.077,0,.118,0l.435-.034,0,0,.153.345a1.166,1.166,0,0,0,1.061.746h0a1.18,1.18,0,0,0,1.022-.638l.579-1,.579,1a1.18,1.18,0,0,0,1.022.638,1.166,1.166,0,0,0,1.061-.746l.153-.344,0,0,.435.034c.041,0,.08,0,.118,0a1.169,1.169,0,0,0,1.035-.562,1.187,1.187,0,0,0-.039-1.21l-1.843-3.2,1.843-3.2A2,2,0,0,0,215.668,32.878Zm-3.5-.816-.872,1.513-.872-1.513Zm-2.478,9.565a1.807,1.807,0,0,0-.769-.431l.858-1.488.509.882Zm3.213,0L208.449,33.9a.347.347,0,0,1,0-.157l.464-.8,4.761,8.259A1.806,1.806,0,0,0,212.9,41.627Zm1.243-7.729-1.332,2.31-.509-.883,1.377-2.388.464.8A.347.347,0,0,1,214.147,33.9Z" transform="translate(-149.938 -26.781)"/>
      <path id="Trazado_1045903" data-name="Trazado 1045903" d="M196.278,26.217V21.35a4.018,4.018,0,0,0-3.992-4.035h-1.6a3.97,3.97,0,0,0-3.107-1.5h-6.806c-.02,0-.04,0-.06,0a11.112,11.112,0,0,0,1.319-5.283.874.874,0,1,0-1.748,0c0,4.843-3.591,8.782-8,8.782s-8-3.94-8-8.782,3.59-8.782,8-8.782a8.018,8.018,0,0,1,7.362,5.33.874.874,0,0,0,1.629-.636A9.754,9.754,0,0,0,172.284,0c-5.377,0-9.752,4.724-9.752,10.53a10.411,10.411,0,0,0,7.54,10.257v.2A2.041,2.041,0,0,0,171.41,22.9V42.357A2.167,2.167,0,0,0,170,45.572a2.175,2.175,0,0,0,0,2.2,2.167,2.167,0,0,0,1.863,3.264h.568a2.205,2.205,0,0,0-.013.23,2.166,2.166,0,0,0,2.161,2.164h1.049a2.159,2.159,0,0,0,2.08-1.582h2.217v5.834a1.992,1.992,0,0,0,1.989,1.991H195.29a1.992,1.992,0,0,0,1.989-1.991v-3.6a.874.874,0,0,0-1.748,0v3.6a.245.245,0,0,1-.241.242H181.912a.245.245,0,0,1-.241-.242V51.845h2.574a10.758,10.758,0,0,0,8.951-4.5,13.223,13.223,0,0,0,2.133-4.384,2.683,2.683,0,0,0-5.21-1.284,8.155,8.155,0,0,1-1.292,2.547,5.429,5.429,0,0,1-4.581,2.251h-2.574V38.636a.245.245,0,0,1,.241-.242h2.353c.194.087.391.167.592.24V38.7a2.968,2.968,0,1,0,5.937,0v-.149q.192-.075.379-.159h4.117a.245.245,0,0,1,.241.242V49.414a.874.874,0,0,0,1.748,0V38.636a1.992,1.992,0,0,0-1.989-1.991h-1.576a8.69,8.69,0,0,0,2.279-3.957h.151a2.814,2.814,0,0,0,2.808-2.813v-.848A2.814,2.814,0,0,0,196.278,26.217Zm-3.992-7.154a2.268,2.268,0,0,1,2.244,2.28,5.973,5.973,0,0,0-.908-.7,7.782,7.782,0,0,0-2.048-.889,4.087,4.087,0,0,0-.074-.687Zm-4.7-1.5a2.259,2.259,0,0,1,2.2,1.838,16.963,16.963,0,0,0-2.064-.12,11.01,11.01,0,0,0-5.9,1.363,5.978,5.978,0,0,0-.909.7V17.559Zm-8.416,13.193a1.066,1.066,0,0,1-.46-.877v-.848a1.065,1.065,0,0,1,.453-.872v2.313C179.161,30.564,179.165,30.657,179.168,30.752Zm-6.884-9.69c.153,0,.306,0,.458-.012a.3.3,0,0,1-.285.234h-.345a.3.3,0,0,1-.285-.234C171.978,21.057,172.131,21.061,172.284,21.061Zm-.836,27.808a.415.415,0,0,1,.2-.355.874.874,0,0,0,0-1.489.415.415,0,0,1,0-.709.874.874,0,0,0,0-1.489.416.416,0,0,1,.213-.771h1.049a.415.415,0,0,1,.413.416c0,.1,0,.328,0,.634a2.165,2.165,0,0,0-.609,2.858,2.159,2.159,0,0,0-.3,1.1c0,.074,0,.148.012.22h-.567A.415.415,0,0,1,171.448,48.869Zm4.591,2.394a.415.415,0,0,1-.122.295.409.409,0,0,1-.291.121h-1.048a.416.416,0,0,1-.214-.771.874.874,0,0,0,0-1.489.415.415,0,0,1,0-.709.874.874,0,0,0,0-1.489.416.416,0,0,1,.213-.771h1.049a.415.415,0,0,1,.413.416Zm14.178-5.979a9.7,9.7,0,0,0,1.6-3.172l0-.014a.928.928,0,0,1,.9-.713.938.938,0,0,1,.911,1.164,11.313,11.313,0,0,1-1.838,3.755,9.069,9.069,0,0,1-7.547,3.794h-6.458c0-.579,0-1.274,0-1.875h6.458A7.167,7.167,0,0,0,190.216,45.284Zm-12.467,1.19a2.153,2.153,0,0,0-.231-.645h2.4v.645Zm2.174-7.838v5.445h-4.89a2.165,2.165,0,0,0-1.875-1.756V22.9a2.041,2.041,0,0,0,1.338-1.912v-.2a9.578,9.578,0,0,0,4.665-2.8v8.291a2.816,2.816,0,0,0-2.2,2.746v.848a2.815,2.815,0,0,0,2.481,2.793,8.691,8.691,0,0,0,2.293,3.986A1.992,1.992,0,0,0,179.923,38.636Zm7.9,1.289a1.223,1.223,0,0,1-1.165-.86A8.342,8.342,0,0,0,189,39.036,1.222,1.222,0,0,1,187.825,39.924Zm6.7-9.456a6.811,6.811,0,1,1-13.621,0V25.832c0-3.234,2.228-4.806,6.81-4.806s6.811,1.572,6.811,4.806Zm2.673-.594a1.064,1.064,0,0,1-.938,1.057c.008-.153.012-.308.012-.463v-2.5a1.064,1.064,0,0,1,.925,1.056v.848Z" transform="translate(-110.924)"/>
      <path id="Trazado_1045904" data-name="Trazado 1045904" d="M364.882,243.679h.656a.874.874,0,1,0,0-1.748h-.262v-.919a.874.874,0,1,0-1.748,0v1.356A1.334,1.334,0,0,0,364.882,243.679Z" transform="translate(-288.496 -212.152)"/>
      <path id="Trazado_1045905" data-name="Trazado 1045905" d="M337.878,233.183a.874.874,0,0,0-1.748,0v1.154a.874.874,0,1,0,1.748,0Z" transform="translate(-264.291 -205.235)"/>
      <path id="Trazado_1045906" data-name="Trazado 1045906" d="M400.562,232.309a.874.874,0,0,0-.874.874v1.154a.874.874,0,1,0,1.748,0v-1.154A.874.874,0,0,0,400.562,232.309Z" transform="translate(-320.441 -205.235)"/>
      <path id="Trazado_1045907" data-name="Trazado 1045907" d="M354.5,280.686a2.091,2.091,0,0,1-2.957,0,.874.874,0,1,0-1.236,1.236,3.839,3.839,0,0,0,5.429,0,.874.874,0,1,0-1.236-1.236Z" transform="translate(-276.585 -247.748)"/>
      <path id="Trazado_1045908" data-name="Trazado 1045908" d="M55.664,161.864h.509a2.985,2.985,0,0,0,1-5.795,2.512,2.512,0,0,0-.26-4.086,10,10,0,0,0-5.449-7.679,4.53,4.53,0,0,0,.469-2.019,1.254,1.254,0,0,0-1.252-1.254H45.443a1.254,1.254,0,0,0-1.252,1.254,4.531,4.531,0,0,0,.469,2.019,10,10,0,0,0-5.452,7.681,2.512,2.512,0,0,0-.257,4.084,2.985,2.985,0,0,0,1,5.795h.509a9.138,9.138,0,0,0,4.172,4.15H40.415a2.55,2.55,0,0,0-2.546,2.549v14.271a1.434,1.434,0,0,0,1.431,1.432H56.489a1.434,1.434,0,0,0,1.431-1.432v-14.27a2.55,2.55,0,0,0-2.546-2.549H51.492A9.139,9.139,0,0,0,55.664,161.864Zm.673-1.76a9.337,9.337,0,0,0,.327-2.358,1.237,1.237,0,0,1-.327,2.358ZM45.981,142.78h4.166a2.7,2.7,0,0,1-.357.956,7.953,7.953,0,0,0-3.451,0A2.7,2.7,0,0,1,45.981,142.78Zm-5.337,10.535H43.97a.874.874,0,0,0,0-1.748H41.062c.809-3.6,3.64-6.272,7-6.272s6.192,2.669,7,6.272H48.282a.874.874,0,0,0,0,1.748h7.2a.809.809,0,1,1,0,1.613H40.644a.809.809,0,1,1,0-1.613Zm-1.921,5.564a1.238,1.238,0,0,1,.741-1.134,9.335,9.335,0,0,0,.327,2.358A1.236,1.236,0,0,1,38.723,158.879Zm.894,17.794a7.868,7.868,0,0,0,4.983,5.845H39.616Zm7.68,3.184a4.676,4.676,0,0,0,2.982-1.071,2.136,2.136,0,0,0,.907,1.047,6.072,6.072,0,0,1-9.97-4.682v-3.141a.692.692,0,1,1,1.384,0v3.141A4.706,4.706,0,0,0,47.3,179.857Zm6.164-4.32a.378.378,0,0,1,0,.646.874.874,0,0,0,0,1.489.379.379,0,0,1-.194.7H52.248a.378.378,0,0,1-.376-.379c0-.452,0-3.817,0-4.27a.378.378,0,0,1,.111-.269.373.373,0,0,1,.265-.11h1.018a.379.379,0,0,1,.194.7.874.874,0,0,0,0,1.489Zm.877-7.774h1.037a.8.8,0,0,1,.8.8v13.955H49.988a7.871,7.871,0,0,0,3.362-2.4,2.128,2.128,0,0,0,1.755-3.19,2.139,2.139,0,0,0,0-2.135,2.13,2.13,0,0,0-1.839-3.195H52.248a2.125,2.125,0,0,0-2.124,2.127c0,.236,0,1.261,0,2.254a2.945,2.945,0,0,1-5.776-.827v-3.141a2.438,2.438,0,0,0-4.732-.833v-2.615a.8.8,0,0,1,.8-.8H41.79a7.38,7.38,0,0,0,12.547,0Zm-2.2,0a5.632,5.632,0,0,1-8.151,0H46a.874.874,0,0,0,.874-.874v-.178a7.595,7.595,0,0,0,2.373,0v.178a.874.874,0,0,0,.874.874Zm-4.076-2.707a6.53,6.53,0,0,1-4.82-2.221,7.76,7.76,0,0,1-2.033-5.181v-.978H54.917v.978a7.76,7.76,0,0,1-2.033,5.181A6.529,6.529,0,0,1,48.064,165.056Z" transform="translate(0 -124.596)"/>
      <path id="Trazado_1045909" data-name="Trazado 1045909" d="M121.987,286.648h.448a1.4,1.4,0,0,0,1.322-1.457v-1.3a.874.874,0,1,0-1.748,0V284.9h-.022a.874.874,0,1,0,0,1.748Z" transform="translate(-74.332 -250.031)"/>
      <path id="Trazado_1045910" data-name="Trazado 1045910" d="M157.077,278.627a.874.874,0,0,0-.874.874v1.119a.874.874,0,0,0,1.748,0V279.5A.874.874,0,0,0,157.077,278.627Z" transform="translate(-105.333 -246.155)"/>
      <path id="Trazado_1045911" data-name="Trazado 1045911" d="M93.912,279.5a.874.874,0,0,0-1.748,0v1.119a.874.874,0,0,0,1.748,0Z" transform="translate(-48.757 -246.155)"/>
      <path id="Trazado_1045912" data-name="Trazado 1045912" d="M110.589,316.476a2.19,2.19,0,0,1-3.106,0,.874.874,0,1,0-1.237,1.235,3.938,3.938,0,0,0,5.581,0,.874.874,0,0,0-1.238-1.235Z" transform="translate(-60.972 -279.366)"/>
    </g>
  </g>
</svg>
