<svg xmlns="http://www.w3.org/2000/svg" xmlns:xlink="http://www.w3.org/1999/xlink" width="113" height="113" viewBox="0 0 113 113">
  <defs>
    <filter id="Trazado_982547" x="0" y="0" width="113" height="113" filterUnits="userSpaceOnUse">
      <feOffset dy="3" input="SourceAlpha"/>
      <feGaussianBlur stdDeviation="3" result="blur"/>
      <feFlood flood-opacity="0.161"/>
      <feComposite operator="in" in2="blur"/>
      <feComposite in="SourceGraphic"/>
    </filter>
    <clipPath id="clip-path">
      <path id="path3606" d="M0-682.665H59.053v59.053H0Z" transform="translate(0 682.665)"/>
    </clipPath>
  </defs>
  <g id="Grupo_1201823" data-name="Grupo 1201823" transform="translate(-271 -7436.286)">
    <g id="Grupo_1201774" data-name="Grupo 1201774" transform="translate(0 6521.786)">
      <g id="Grupo_1201330" data-name="Grupo 1201330" transform="translate(280 920.5)">
        <g id="Grupo_1172010" data-name="Grupo 1172010">
          <g id="Grupo_1171046" data-name="Grupo 1171046">
            <g id="Grupo_1148525" data-name="Grupo 1148525">
              <g transform="matrix(1, 0, 0, 1, -9, -6)" filter="url(#Trazado_982547)">
                <g id="Trazado_982547-2" data-name="Trazado 982547" transform="translate(9 6)" fill="#fdfbec">
                  <path d="M 47.5 93.5 C 41.28937149047852 93.5 35.26533508300781 92.28397369384766 29.59518623352051 89.88570404052734 C 24.11771965026855 87.56893157958984 19.19813346862793 84.25196075439453 14.97309303283691 80.02691650390625 C 10.74804019927979 75.80186462402344 7.431066513061523 70.88229370117188 5.114293098449707 65.40481567382812 C 2.716026782989502 59.73468017578125 1.5 53.71062850952148 1.5 47.5 C 1.5 41.28937149047852 2.716026782989502 35.26533508300781 5.114293098449707 29.59518623352051 C 7.431066513061523 24.11771965026855 10.74804019927979 19.19813346862793 14.97309303283691 14.97309303283691 C 19.19813346862793 10.74804019927979 24.11771965026855 7.431066513061523 29.59518623352051 5.114293098449707 C 35.26533508300781 2.716026782989502 41.28937149047852 1.5 47.5 1.5 C 53.71062850952148 1.5 59.73468017578125 2.716026782989502 65.40481567382812 5.114293098449707 C 70.88229370117188 7.431066513061523 75.80186462402344 10.74804019927979 80.02691650390625 14.97309303283691 C 84.25196075439453 19.19813346862793 87.56893157958984 24.11771965026855 89.88570404052734 29.59518623352051 C 92.28397369384766 35.26533508300781 93.5 41.28937149047852 93.5 47.5 C 93.5 53.71062850952148 92.28397369384766 59.73468017578125 89.88570404052734 65.40481567382812 C 87.56893157958984 70.88229370117188 84.25196075439453 75.80186462402344 80.02691650390625 80.02691650390625 C 75.80186462402344 84.25196075439453 70.88229370117188 87.56893157958984 65.40481567382812 89.88570404052734 C 59.73468017578125 92.28397369384766 53.71062850952148 93.5 47.5 93.5 Z" stroke="none"/>
                  <path d="M 47.5 3 C 41.49121475219727 3 35.66376876831055 4.176155090332031 30.17950439453125 6.495796203613281 C 24.88084411621094 8.736953735351562 20.12152099609375 11.94598388671875 16.03375244140625 16.03375244140625 C 11.94598388671875 20.12152099609375 8.736953735351562 24.88084411621094 6.495796203613281 30.17950439453125 C 4.176155090332031 35.66376876831055 3 41.49121475219727 3 47.5 C 3 53.50878524780273 4.176155090332031 59.33623123168945 6.495796203613281 64.82049560546875 C 8.736953735351562 70.11915588378906 11.94598388671875 74.87847900390625 16.03375244140625 78.96624755859375 C 20.12152099609375 83.05401611328125 24.88084411621094 86.26304626464844 30.17950439453125 88.50419616699219 C 35.66376876831055 90.82384490966797 41.49121475219727 92 47.5 92 C 53.50878524780273 92 59.33623123168945 90.82384490966797 64.82049560546875 88.50419616699219 C 70.11915588378906 86.26304626464844 74.87847900390625 83.05401611328125 78.96624755859375 78.96624755859375 C 83.05401611328125 74.87847900390625 86.26304626464844 70.11915588378906 88.50419616699219 64.82049560546875 C 90.82384490966797 59.33623123168945 92 53.50878524780273 92 47.5 C 92 41.49121475219727 90.82384490966797 35.66376876831055 88.50419616699219 30.17950439453125 C 86.26304626464844 24.88084411621094 83.05401611328125 20.12152099609375 78.96624755859375 16.03375244140625 C 74.87847900390625 11.94598388671875 70.11915588378906 8.736953735351562 64.82049560546875 6.495796203613281 C 59.33623123168945 4.176155090332031 53.50878524780273 3 47.5 3 M 47.5 0 C 73.7335205078125 0 95 21.2664794921875 95 47.5 C 95 73.7335205078125 73.7335205078125 95 47.5 95 C 21.2664794921875 95 0 73.7335205078125 0 47.5 C 0 21.2664794921875 21.2664794921875 0 47.5 0 Z" stroke="none" fill="#83793c"/>
                </g>
              </g>
            </g>
          </g>
        </g>
      </g>
    </g>
    <g id="g3600" transform="translate(297.974 8142.925)">
      <g id="g3602" transform="translate(0 -682.665)">
        <g id="g3604" transform="translate(0 0)" clip-path="url(#clip-path)">
          <g id="g3610" transform="translate(2.96 0.865)">
            <path id="path3612" d="M-370.463-590.92h-33.9a1.185,1.185,0,0,1-1.185-1.185v-53.586a1.185,1.185,0,0,1,1.185-1.185h33.9a1.185,1.185,0,0,1,1.185,1.185v53.586a1.185,1.185,0,0,1-1.185,1.185" transform="translate(405.544 646.877)" fill="#eef4f5"/>
          </g>
          <g id="g3614" transform="translate(33.358 0.865)">
            <path id="path3616" d="M-61.959-12.517V41.07a1.185,1.185,0,0,1-1.185,1.185h-4.682a1.185,1.185,0,0,0,1.185-1.185V-12.517A1.185,1.185,0,0,0-67.827-13.7h4.682a1.185,1.185,0,0,1,1.185,1.185" transform="translate(67.827 13.703)" fill="#cbe5e7"/>
          </g>
          <g id="g3618" transform="translate(2.96 0.865)">
            <path id="path3620" d="M0-441.006V-428a1.185,1.185,0,0,0,1.185,1.185h33.9A1.185,1.185,0,0,0,36.266-428v-53.587a1.185,1.185,0,0,0-1.185-1.185H26.719" transform="translate(0 482.767)" fill="none" stroke="#000" stroke-linecap="round" stroke-linejoin="round" stroke-miterlimit="10" stroke-width="1"/>
          </g>
          <g id="g3622" transform="translate(2.96 0.865)">
            <path id="path3624" d="M-241.571,0h-21.69a1.185,1.185,0,0,0-1.185,1.185V37.917" transform="translate(264.446)" fill="none" stroke="#000" stroke-linecap="round" stroke-linejoin="round" stroke-miterlimit="10" stroke-width="1"/>
          </g>
          <g id="g3626" transform="translate(8.265 22.743)">
            <path id="path3628" d="M0,0V29.638H25.655V0" fill="none" stroke="#000" stroke-linecap="round" stroke-linejoin="round" stroke-miterlimit="10" stroke-width="1"/>
          </g>
          <g id="g3630" transform="translate(31.781 21.386)">
            <path id="path3632" d="M-236.139-33.737h-.812a1.951,1.951,0,0,0-1.951,1.951v-1.588a1.951,1.951,0,0,0-1.951-1.951h-.812a1.951,1.951,0,0,0-1.951,1.951v-.918a1.951,1.951,0,0,0-1.951-1.951h-.812a1.951,1.951,0,0,0-1.951,1.951v-.689a1.951,1.951,0,0,0-1.951-1.951h-.812a1.951,1.951,0,0,0-1.951,1.951v2.938l-4.27,1.2a1.628,1.628,0,0,0-1.188,1.568v1.956a4.123,4.123,0,0,0,.695,2.29l3.176,4.755a9.424,9.424,0,0,1,1.588,5.235V-.13h14.222V-11.464a9.644,9.644,0,0,1,2.5-6.479,6.02,6.02,0,0,0,1.349-2.462l.571-2.095a6.022,6.022,0,0,0,.212-1.583v-7.7a1.951,1.951,0,0,0-1.951-1.951" transform="translate(258.501 36.932)" fill="#c86f5c"/>
          </g>
          <g id="g3634" transform="translate(37.239 49.593)">
            <path id="path3636" d="M0,0V8.594" fill="none" stroke="#000" stroke-linecap="round" stroke-linejoin="round" stroke-miterlimit="10" stroke-width="1"/>
          </g>
          <g id="g3638" transform="translate(31.781 26.274)">
            <path id="path3640" d="M-57.64,0l-4.27,1.2A1.628,1.628,0,0,0-63.1,2.766V4.722a4.123,4.123,0,0,0,.694,2.29l3.176,4.755A9.424,9.424,0,0,1-57.64,17v2.474" transform="translate(63.099)" fill="none" stroke="#000" stroke-linecap="round" stroke-linejoin="round" stroke-miterlimit="10" stroke-width="1"/>
          </g>
          <g id="g3642" transform="translate(47.925 24.581)">
            <path id="path3644" d="M-86.259-20.6v7.7a6.022,6.022,0,0,1-.212,1.582l-.57,2.1a5.943,5.943,0,0,1-.53,1.31,5.968,5.968,0,0,1-.82,1.151,9.649,9.649,0,0,0-2.5,6.479V11.055h-3.536V-.279a9.643,9.643,0,0,1,2.5-6.479,5.969,5.969,0,0,0,.82-1.151,5.953,5.953,0,0,0,.529-1.31l.571-2.1A6.021,6.021,0,0,0-89.8-12.9v-7.7a1.943,1.943,0,0,0-.588-1.4,1.939,1.939,0,0,1,1.363-.555h.812A1.951,1.951,0,0,1-86.259-20.6" transform="translate(94.428 22.552)" fill="#ba5d4f"/>
          </g>
          <g id="g3646" transform="translate(37.239 21.386)">
            <path id="path3648" d="M-150.189-388.633v-11.334a9.644,9.644,0,0,1,2.5-6.478,6.021,6.021,0,0,0,1.349-2.462l.571-2.095a6.023,6.023,0,0,0,.212-1.583v-7.7a1.951,1.951,0,0,0-1.951-1.951h-.812a1.951,1.951,0,0,0-1.951,1.951v-1.588a1.951,1.951,0,0,0-1.951-1.951h-.812a1.951,1.951,0,0,0-1.951,1.951v-.918a1.951,1.951,0,0,0-1.951-1.951h-.812A1.951,1.951,0,0,0-159.7-422.8v-.689a1.951,1.951,0,0,0-1.951-1.951h-.812a1.951,1.951,0,0,0-1.951,1.951v7.629" transform="translate(164.412 425.435)" fill="none" stroke="#000" stroke-linecap="round" stroke-linejoin="round" stroke-miterlimit="10" stroke-width="1"/>
          </g>
          <g id="g3650" transform="translate(10.203 5.608)">
            <path id="path3652" d="M-115-57.5a5.445,5.445,0,0,1-5.445,5.445,5.445,5.445,0,0,1-5.445-5.445,5.445,5.445,0,0,1,5.445-5.445A5.445,5.445,0,0,1-115-57.5" transform="translate(125.888 62.944)" fill="#31a7fb"/>
          </g>
          <g id="g3654" transform="translate(15.648 5.608)">
            <path id="path3656" d="M0,0A5.445,5.445,0,0,1,5.445,5.445,5.445,5.445,0,0,1,0,10.89Z" fill="#1785f8"/>
          </g>
          <g id="g3658" transform="translate(13.564 5.608)">
            <path id="path3660" d="M-44.013-57.5c0,3.007-.933,5.445-2.084,5.445s-2.084-2.438-2.084-5.445.933-5.445,2.084-5.445,2.084,2.438,2.084,5.445" transform="translate(48.181 62.944)" fill="#8dcafc"/>
          </g>
          <g id="g3662" transform="translate(10.203 11.053)">
            <path id="path3664" d="M0,0H10.89" fill="#fdd330"/>
          </g>
          <g id="g3666" transform="translate(21.093 5.608)">
            <path id="path3668" d="M-115-57.5a5.445,5.445,0,0,1-5.445,5.445,5.445,5.445,0,0,1-5.445-5.445,5.445,5.445,0,0,1,5.445-5.445A5.445,5.445,0,0,1-115-57.5" transform="translate(125.889 62.944)" fill="#fdd330"/>
          </g>
          <g id="g3670" transform="translate(25.177 5.609)">
            <path id="path3672" d="M-71.874-57.489a5.445,5.445,0,0,1-5.445,5.445,5.468,5.468,0,0,1-1.361-.172A5.446,5.446,0,0,0-74.6-57.489a5.446,5.446,0,0,0-4.083-5.272,5.467,5.467,0,0,1,1.361-.172,5.445,5.445,0,0,1,5.445,5.444" transform="translate(78.68 62.933)" fill="#f8c52d"/>
          </g>
          <g id="g3674" transform="translate(26.538 5.608)">
            <path id="path3676" d="M0,0V10.886" fill="#fdd330"/>
          </g>
          <g id="g3678" transform="translate(22.597 10.869)">
            <path id="path3680" d="M0-41.618l3.941-3.941,3.941,3.941" transform="translate(0 45.559)" fill="#fdd330"/>
          </g>
          <g id="g3682" transform="translate(10.203 5.608)">
            <path id="path3684" d="M-115-57.5a5.445,5.445,0,0,1-5.445,5.445,5.445,5.445,0,0,1-5.445-5.445,5.445,5.445,0,0,1,5.445-5.445A5.445,5.445,0,0,1-115-57.5Z" transform="translate(125.888 62.944)" fill="none" stroke="#000" stroke-linecap="round" stroke-linejoin="round" stroke-miterlimit="10" stroke-width="1"/>
          </g>
          <g id="g3686" transform="translate(13.564 5.608)">
            <path id="path3688" d="M-44.013-57.5c0,3.007-.933,5.445-2.084,5.445s-2.084-2.438-2.084-5.445.933-5.445,2.084-5.445S-44.013-60.506-44.013-57.5Z" transform="translate(48.181 62.944)" fill="none" stroke="#000" stroke-linecap="round" stroke-linejoin="round" stroke-miterlimit="10" stroke-width="1"/>
          </g>
          <g id="g3690" transform="translate(10.203 11.053)">
            <path id="path3692" d="M0,0H10.89" fill="none" stroke="#000" stroke-linecap="round" stroke-linejoin="round" stroke-miterlimit="10" stroke-width="1"/>
          </g>
          <g id="g3694" transform="translate(21.093 5.608)">
            <path id="path3696" d="M-115-57.5a5.445,5.445,0,0,1-5.445,5.445,5.445,5.445,0,0,1-5.445-5.445,5.445,5.445,0,0,1,5.445-5.445A5.445,5.445,0,0,1-115-57.5Z" transform="translate(125.889 62.944)" fill="none" stroke="#000" stroke-linecap="round" stroke-linejoin="round" stroke-miterlimit="10" stroke-width="1"/>
          </g>
          <g id="g3698" transform="translate(26.538 5.608)">
            <path id="path3700" d="M0,0V10.886" fill="none" stroke="#000" stroke-linecap="round" stroke-linejoin="round" stroke-miterlimit="10" stroke-width="1"/>
          </g>
          <g id="g3702" transform="translate(22.597 10.869)">
            <path id="path3704" d="M0-41.618l3.941-3.941,3.941,3.941" transform="translate(0 45.559)" fill="none" stroke="#000" stroke-linecap="round" stroke-linejoin="round" stroke-miterlimit="10" stroke-width="1"/>
          </g>
          <g id="g3706" transform="translate(29.305 17.139)">
            <path id="path3708" d="M0-33.9a4.953,4.953,0,0,0,4.347-3.21" transform="translate(0 37.108)" fill="none" stroke="#000" stroke-linecap="round" stroke-linejoin="round" stroke-miterlimit="10" stroke-width="1"/>
          </g>
          <g id="g3710" transform="translate(30.158 18.156)">
            <path id="path3712" d="M0-21.756a1.853,1.853,0,0,0,1.321-2.06" transform="translate(0 23.816)" fill="none" stroke="#000" stroke-linecap="round" stroke-linejoin="round" stroke-miterlimit="10" stroke-width="1"/>
          </g>
          <g id="g3714" transform="translate(31.964 18.879)">
            <path id="path3716" d="M0-5.571a2.86,2.86,0,0,1,2.469-.388" transform="translate(0 6.099)" fill="none" stroke="#000" stroke-linecap="round" stroke-linejoin="round" stroke-miterlimit="10" stroke-width="1"/>
          </g>
          <g id="g3718" transform="translate(8.534 17.139)">
            <path id="path3720" d="M-45.907-33.9a4.953,4.953,0,0,1-4.347-3.21" transform="translate(50.255 37.108)" fill="none" stroke="#000" stroke-linecap="round" stroke-linejoin="round" stroke-miterlimit="10" stroke-width="1"/>
          </g>
          <g id="g3722" transform="translate(10.704 18.156)">
            <path id="path3724" d="M-13.984-21.756a1.853,1.853,0,0,1-1.321-2.06" transform="translate(15.308 23.816)" fill="none" stroke="#000" stroke-linecap="round" stroke-linejoin="round" stroke-miterlimit="10" stroke-width="1"/>
          </g>
          <g id="g3726" transform="translate(7.753 18.879)">
            <path id="path3728" d="M-26.072-5.571a2.86,2.86,0,0,0-2.469-.388" transform="translate(28.541 6.099)" fill="none" stroke="#000" stroke-linecap="round" stroke-linejoin="round" stroke-miterlimit="10" stroke-width="1"/>
          </g>
          <g id="g3730" transform="translate(17.348 23.672)">
            <path id="path3732" d="M0,0H7.49" fill="none" stroke="#000" stroke-linecap="round" stroke-linejoin="round" stroke-miterlimit="10" stroke-width="1"/>
          </g>
          <g id="g3734" transform="translate(15.114 26.715)">
            <path id="path3736" d="M0,0H11.957" fill="none" stroke="#000" stroke-linecap="round" stroke-linejoin="round" stroke-miterlimit="10" stroke-width="1"/>
          </g>
          <g id="g3738" transform="translate(15.114 29.758)">
            <path id="path3740" d="M0,0H11.957" fill="none" stroke="#000" stroke-linecap="round" stroke-linejoin="round" stroke-miterlimit="10" stroke-width="1"/>
          </g>
          <g id="g3742" transform="translate(15.114 34.362)">
            <path id="path3744" d="M0,0H11.957" fill="none" stroke="#000" stroke-linecap="round" stroke-linejoin="round" stroke-miterlimit="10" stroke-width="1"/>
          </g>
          <g id="g3746" transform="translate(12.881 37.405)">
            <path id="path3748" d="M0,0H16.424" fill="none" stroke="#000" stroke-linecap="round" stroke-linejoin="round" stroke-miterlimit="10" stroke-width="1"/>
          </g>
          <g id="g3750" transform="translate(12.881 40.448)">
            <path id="path3752" d="M0,0H16.424" fill="none" stroke="#000" stroke-linecap="round" stroke-linejoin="round" stroke-miterlimit="10" stroke-width="1"/>
          </g>
          <g id="g3754" transform="translate(12.881 43.491)">
            <path id="path3756" d="M0,0H16.424" transform="translate(0 0)" fill="none" stroke="#000" stroke-linecap="round" stroke-linejoin="round" stroke-miterlimit="10" stroke-width="1"/>
          </g>
          <g id="g3758" transform="translate(27.072 47.653)">
            <path id="path3760" d="M0,0H2.234" fill="none" stroke="#000" stroke-linecap="round" stroke-linejoin="round" stroke-miterlimit="10" stroke-width="1"/>
          </g>
          <g id="g3762" transform="translate(18.585 19.793)">
            <path id="path3764" d="M0-.127V-.139" transform="translate(0 0.139)" fill="none" stroke="#000" stroke-linecap="round" stroke-linejoin="round" stroke-miterlimit="10" stroke-width="1"/>
          </g>
          <g id="g3766" transform="translate(21.093 19.793)">
            <path id="path3768" d="M0-.127V-.139" transform="translate(0 0.139)" fill="none" stroke="#000" stroke-linecap="round" stroke-linejoin="round" stroke-miterlimit="10" stroke-width="1"/>
          </g>
          <g id="g3770" transform="translate(23.601 19.793)">
            <path id="path3772" d="M0-.127V-.139" transform="translate(0 0.139)" fill="none" stroke="#000" stroke-linecap="round" stroke-linejoin="round" stroke-miterlimit="10" stroke-width="1"/>
          </g>
        </g>
      </g>
    </g>
  </g>
</svg>
