<svg xmlns="http://www.w3.org/2000/svg" xmlns:xlink="http://www.w3.org/1999/xlink" width="113" height="113" viewBox="0 0 113 113">
  <defs>
    <filter id="Trazado_982547" x="0" y="0" width="113" height="113" filterUnits="userSpaceOnUse">
      <feOffset dy="3" input="SourceAlpha"/>
      <feGaussianBlur stdDeviation="3" result="blur"/>
      <feFlood flood-opacity="0.161"/>
      <feComposite operator="in" in2="blur"/>
      <feComposite in="SourceGraphic"/>
    </filter>
  </defs>
  <g id="Grupo_1201828" data-name="Grupo 1201828" transform="translate(-901.5 -7436.286)">
    <g id="Grupo_1201772" data-name="Grupo 1201772" transform="translate(630.5 6521.786)">
      <g id="Grupo_1201330" data-name="Grupo 1201330" transform="translate(280 920.5)">
        <g id="Grupo_1172010" data-name="Grupo 1172010">
          <g id="Grupo_1171046" data-name="Grupo 1171046">
            <g id="Grupo_1148525" data-name="Grupo 1148525">
              <g transform="matrix(1, 0, 0, 1, -9, -6)" filter="url(#Trazado_982547)">
                <g id="Trazado_982547-2" data-name="Trazado 982547" transform="translate(9 6)" fill="#fdfbec">
                  <path d="M 47.5 93.5 C 41.28937149047852 93.5 35.26533508300781 92.28397369384766 29.59518623352051 89.88570404052734 C 24.11771965026855 87.56893157958984 19.19813346862793 84.25196075439453 14.97309303283691 80.02691650390625 C 10.74804019927979 75.80186462402344 7.431066513061523 70.88229370117188 5.114293098449707 65.40481567382812 C 2.716026782989502 59.73468017578125 1.5 53.71062850952148 1.5 47.5 C 1.5 41.28937149047852 2.716026782989502 35.26533508300781 5.114293098449707 29.59518623352051 C 7.431066513061523 24.11771965026855 10.74804019927979 19.19813346862793 14.97309303283691 14.97309303283691 C 19.19813346862793 10.74804019927979 24.11771965026855 7.431066513061523 29.59518623352051 5.114293098449707 C 35.26533508300781 2.716026782989502 41.28937149047852 1.5 47.5 1.5 C 53.71062850952148 1.5 59.73468017578125 2.716026782989502 65.40481567382812 5.114293098449707 C 70.88229370117188 7.431066513061523 75.80186462402344 10.74804019927979 80.02691650390625 14.97309303283691 C 84.25196075439453 19.19813346862793 87.56893157958984 24.11771965026855 89.88570404052734 29.59518623352051 C 92.28397369384766 35.26533508300781 93.5 41.28937149047852 93.5 47.5 C 93.5 53.71062850952148 92.28397369384766 59.73468017578125 89.88570404052734 65.40481567382812 C 87.56893157958984 70.88229370117188 84.25196075439453 75.80186462402344 80.02691650390625 80.02691650390625 C 75.80186462402344 84.25196075439453 70.88229370117188 87.56893157958984 65.40481567382812 89.88570404052734 C 59.73468017578125 92.28397369384766 53.71062850952148 93.5 47.5 93.5 Z" stroke="none"/>
                  <path d="M 47.5 3 C 41.49121475219727 3 35.66376876831055 4.176155090332031 30.17950439453125 6.495796203613281 C 24.88084411621094 8.736953735351562 20.12152099609375 11.94598388671875 16.03375244140625 16.03375244140625 C 11.94598388671875 20.12152099609375 8.736953735351562 24.88084411621094 6.495796203613281 30.17950439453125 C 4.176155090332031 35.66376876831055 3 41.49121475219727 3 47.5 C 3 53.50878524780273 4.176155090332031 59.33623123168945 6.495796203613281 64.82049560546875 C 8.736953735351562 70.11915588378906 11.94598388671875 74.87847900390625 16.03375244140625 78.96624755859375 C 20.12152099609375 83.05401611328125 24.88084411621094 86.26304626464844 30.17950439453125 88.50419616699219 C 35.66376876831055 90.82384490966797 41.49121475219727 92 47.5 92 C 53.50878524780273 92 59.33623123168945 90.82384490966797 64.82049560546875 88.50419616699219 C 70.11915588378906 86.26304626464844 74.87847900390625 83.05401611328125 78.96624755859375 78.96624755859375 C 83.05401611328125 74.87847900390625 86.26304626464844 70.11915588378906 88.50419616699219 64.82049560546875 C 90.82384490966797 59.33623123168945 92 53.50878524780273 92 47.5 C 92 41.49121475219727 90.82384490966797 35.66376876831055 88.50419616699219 30.17950439453125 C 86.26304626464844 24.88084411621094 83.05401611328125 20.12152099609375 78.96624755859375 16.03375244140625 C 74.87847900390625 11.94598388671875 70.11915588378906 8.736953735351562 64.82049560546875 6.495796203613281 C 59.33623123168945 4.176155090332031 53.50878524780273 3 47.5 3 M 47.5 0 C 73.7335205078125 0 95 21.2664794921875 95 47.5 C 95 73.7335205078125 73.7335205078125 95 47.5 95 C 21.2664794921875 95 0 73.7335205078125 0 47.5 C 0 21.2664794921875 21.2664794921875 0 47.5 0 Z" stroke="none" fill="#83793c"/>
                </g>
              </g>
            </g>
          </g>
        </g>
      </g>
    </g>
    <g id="support_7408264" transform="translate(919.5 7432.33)">
      <g id="Grupo_1201826" data-name="Grupo 1201826" transform="translate(7.5 29.158)">
        <path id="Trazado_1045939" data-name="Trazado 1045939" d="M294.048,98.285a4.521,4.521,0,0,1,4.521-4.521h0a4.513,4.513,0,0,1,3.62,1.813.421.421,0,0,0,.672,0,4.513,4.513,0,0,1,3.62-1.813h0A4.521,4.521,0,0,1,311,98.285h0a7.209,7.209,0,0,1-2.706,5.629l-5.242,4.194a.847.847,0,0,1-1.059,0l-5.242-4.194a7.209,7.209,0,0,1-2.706-5.629Z" transform="translate(-258.302 -85.705)" fill="#64caff"/>
        <path id="Trazado_1045940" data-name="Trazado 1045940" d="M357.348,98.282a7.2,7.2,0,0,1-2.706,5.629L349.4,108.1a.848.848,0,0,1-1.058,0L347,107.031l3.9-3.12a7.2,7.2,0,0,0,2.706-5.629,4.529,4.529,0,0,0-2.648-4.118,4.522,4.522,0,0,1,6.391,4.118Z" transform="translate(-304.648 -85.701)" fill="#00b8ff"/>
        <path id="Trazado_1045941" data-name="Trazado 1045941" d="M99,98.285a4.521,4.521,0,0,0-4.521-4.521h0a4.513,4.513,0,0,0-3.62,1.813.421.421,0,0,1-.672,0,4.513,4.513,0,0,0-3.62-1.813h0a4.521,4.521,0,0,0-4.521,4.521h0a7.209,7.209,0,0,0,2.706,5.629L90,108.108a.847.847,0,0,0,1.059,0l5.242-4.194A7.209,7.209,0,0,0,99,98.285Z" transform="translate(-72.749 -85.705)" fill="#9ff497"/>
        <path id="Trazado_1045942" data-name="Trazado 1045942" d="M145.348,98.282a7.209,7.209,0,0,1-2.706,5.629L137.4,108.1a.848.848,0,0,1-1.058,0L135,107.031l3.9-3.12a7.209,7.209,0,0,0,2.706-5.629,4.524,4.524,0,0,0-2.648-4.118,4.522,4.522,0,0,1,6.391,4.118Z" transform="translate(-119.095 -85.701)" fill="#6ce79a"/>
        <path id="Trazado_1045943" data-name="Trazado 1045943" d="M147.668,36.366a7.208,7.208,0,0,1,7.208-7.208h0a7.2,7.2,0,0,1,5.771,2.891.671.671,0,0,0,1.071,0,7.2,7.2,0,0,1,5.771-2.891h0a7.208,7.208,0,0,1,7.208,7.208h0a11.493,11.493,0,0,1-4.313,8.975l-8.357,6.686a1.351,1.351,0,0,1-1.688,0l-8.357-6.686a11.493,11.493,0,0,1-4.313-8.975Z" transform="translate(-130.182 -29.158)" fill="#ff9aa2"/>
        <path id="Trazado_1045944" data-name="Trazado 1045944" d="M256.385,36.367a11.5,11.5,0,0,1-4.313,8.976l-8.358,6.685a1.35,1.35,0,0,1-1.687,0L241,51.206l7.33-5.863a11.5,11.5,0,0,0,4.313-8.976,7.21,7.21,0,0,0-5.335-6.961,7.208,7.208,0,0,1,9.078,6.961Z" transform="translate(-211.871 -29.16)" fill="#ff8188"/>
        <path id="Trazado_1045945" data-name="Trazado 1045945" d="M475.248,124.229V118.11a1.863,1.863,0,0,0-1.863-1.863h0a1.863,1.863,0,0,0-1.853,1.666l-.453,4.265Z" transform="translate(-413.248 -105.383)" fill="#d59087"/>
        <path id="Trazado_1045946" data-name="Trazado 1045946" d="M7.5,124.229V118.11a1.863,1.863,0,0,1,1.863-1.863h0a1.863,1.863,0,0,1,1.853,1.666l.453,4.265Z" transform="translate(-7.5 -105.383)" fill="#ffb09e"/>
        <path id="Trazado_1045947" data-name="Trazado 1045947" d="M33.947,179.775V162.01a2.694,2.694,0,0,0-2.694-2.694h0a2.694,2.694,0,0,0-2.58,1.92l-2.006,6.694a1.247,1.247,0,0,1-1.939.643L14.561,161.02a3.743,3.743,0,0,1-1.477-2.5l-1.477-10.889a2.063,2.063,0,0,0-2.045-1.786h0A2.063,2.063,0,0,0,7.5,147.906V161.63a4.366,4.366,0,0,0,1.681,3.443l12.1,9.433a3.742,3.742,0,0,1,1.441,2.951v2.318H33.947Z" transform="translate(-7.5 -131.287)" fill="#ffcebf"/>
        <path id="Trazado_1045948" data-name="Trazado 1045948" d="M187.475,256.535V274.3h-3.742V256.535a2.685,2.685,0,0,0-.822-1.937,2.637,2.637,0,0,1,.263-.225,2.693,2.693,0,0,1,4.3,2.162Z" transform="translate(-161.028 -225.811)" fill="#ffb09e"/>
        <path id="Trazado_1045949" data-name="Trazado 1045949" d="M110.747,425.952H124.47a1.247,1.247,0,0,0,1.247-1.247V419.09a1.248,1.248,0,0,0-1.247-1.248H110.747a1.247,1.247,0,0,0-1.247,1.248V424.7A1.248,1.248,0,0,0,110.747,425.952Z" transform="translate(-96.776 -369.355)" fill="#b0a8d9"/>
        <path id="Trazado_1045950" data-name="Trazado 1045950" d="M204.49,419.087V424.7a1.247,1.247,0,0,1-1.247,1.247H199.5a1.247,1.247,0,0,0,1.247-1.247v-5.614a1.248,1.248,0,0,0-1.247-1.247h3.742A1.248,1.248,0,0,1,204.49,419.087Z" transform="translate(-175.548 -369.353)" fill="#9c8fce"/>
        <path id="Trazado_1045951" data-name="Trazado 1045951" d="M292.5,179.774V162.009a2.694,2.694,0,0,1,2.694-2.694h0a2.694,2.694,0,0,1,2.58,1.92l2.006,6.694a1.247,1.247,0,0,0,1.939.643l10.166-7.553a3.743,3.743,0,0,0,1.476-2.5l1.477-10.89a2.063,2.063,0,0,1,2.045-1.786h0a2.063,2.063,0,0,1,2.063,2.063v13.723a4.367,4.367,0,0,1-1.681,3.443l-12.1,9.433a3.743,3.743,0,0,0-1.441,2.951v2.318Z" transform="translate(-256.947 -131.286)" fill="#e5b7b1"/>
        <path id="Trazado_1045952" data-name="Trazado 1045952" d="M371.462,147.9v13.724a4.363,4.363,0,0,1-1.682,3.443l-12.1,9.433a3.741,3.741,0,0,0-1.441,2.95v2.318H352.5v-2.318a3.74,3.74,0,0,1,1.441-2.95l12.1-9.433a4.363,4.363,0,0,0,1.682-3.443V147.9a2.049,2.049,0,0,0-.192-.869,2.064,2.064,0,0,1,3.935.869Z" transform="translate(-309.462 -131.284)" fill="#dfa39c"/>
        <path id="Trazado_1045953" data-name="Trazado 1045953" d="M287.47,425.952H273.747A1.247,1.247,0,0,1,272.5,424.7V419.09a1.247,1.247,0,0,1,1.247-1.248H287.47a1.247,1.247,0,0,1,1.247,1.248V424.7A1.248,1.248,0,0,1,287.47,425.952Z" transform="translate(-239.442 -369.355)" fill="#806d7a"/>
        <path id="Trazado_1045954" data-name="Trazado 1045954" d="M367.49,419.087V424.7a1.247,1.247,0,0,1-1.247,1.247H362.5a1.247,1.247,0,0,0,1.247-1.247v-5.614a1.248,1.248,0,0,0-1.247-1.247h3.742A1.248,1.248,0,0,1,367.49,419.087Z" transform="translate(-318.214 -369.353)" fill="#6c5e69"/>
      </g>
      <g id="Grupo_1201827" data-name="Grupo 1201827" transform="translate(7.5 29.158)">
        <path id="Trazado_1045955" data-name="Trazado 1045955" d="M319.74,95.744a.416.416,0,0,0,.309-.167,4.513,4.513,0,0,1,3.62-1.813h0a4.521,4.521,0,0,1,4.521,4.521h0a7.209,7.209,0,0,1-2.706,5.629l-5.242,4.194a.847.847,0,0,1-1.059,0l-5.242-4.194q-.131-.1-.256-.215" transform="translate(-275.49 -85.705)" fill="none" stroke="#000" stroke-linecap="round" stroke-linejoin="round" stroke-miterlimit="10" stroke-width="1"/>
        <path id="Trazado_1045956" data-name="Trazado 1045956" d="M147.668,36.366a7.208,7.208,0,0,1,7.208-7.208h0a7.2,7.2,0,0,1,5.771,2.891.671.671,0,0,0,1.071,0,7.2,7.2,0,0,1,5.771-2.891h0a7.208,7.208,0,0,1,7.208,7.208h0a11.493,11.493,0,0,1-4.313,8.975l-8.357,6.686a1.351,1.351,0,0,1-1.688,0l-8.357-6.686a11.493,11.493,0,0,1-4.313-8.975Z" transform="translate(-130.182 -29.158)" fill="none" stroke="#000" stroke-linecap="round" stroke-linejoin="round" stroke-miterlimit="10" stroke-width="1"/>
        <path id="Trazado_1045957" data-name="Trazado 1045957" d="M90.526,95.746a.417.417,0,0,1-.336-.167,4.513,4.513,0,0,0-3.62-1.813h0a4.521,4.521,0,0,0-4.521,4.521h0a7.209,7.209,0,0,0,2.706,5.629L90,108.109a.847.847,0,0,0,1.059,0l5.242-4.194q.173-.138.336-.286" transform="translate(-72.749 -85.705)" fill="none" stroke="#000" stroke-linecap="round" stroke-linejoin="round" stroke-miterlimit="10" stroke-width="1"/>
        <path id="Trazado_1045958" data-name="Trazado 1045958" d="M29.58,179.775H21.472a1.247,1.247,0,0,0-1.247,1.247v5.614a1.247,1.247,0,0,0,1.247,1.247H35.194a1.247,1.247,0,0,0,1.247-1.247v-5.614a1.247,1.247,0,0,0-1.247-1.247H33.947V162.01a2.694,2.694,0,0,0-2.694-2.694h0a2.694,2.694,0,0,0-2.58,1.92l-2.006,6.694a1.247,1.247,0,0,1-1.939.643L14.561,161.02a3.743,3.743,0,0,1-1.477-2.5l-1.477-10.889a2.063,2.063,0,0,0-2.045-1.786h0A2.063,2.063,0,0,0,7.5,147.906V161.63a4.366,4.366,0,0,0,1.681,3.443l12.1,9.433a3.742,3.742,0,0,1,1.441,2.951v1.969" transform="translate(-7.5 -131.287)" fill="none" stroke="#000" stroke-linecap="round" stroke-linejoin="round" stroke-miterlimit="10" stroke-width="1"/>
        <path id="Trazado_1045959" data-name="Trazado 1045959" d="M7.5,122V118.11a1.863,1.863,0,0,1,1.863-1.863h0a1.863,1.863,0,0,1,1.853,1.666l.453,4.265" transform="translate(-7.5 -105.383)" fill="none" stroke="#000" stroke-linecap="round" stroke-linejoin="round" stroke-miterlimit="10" stroke-width="1"/>
        <path id="Trazado_1045960" data-name="Trazado 1045960" d="M279.361,179.774h8.109a1.247,1.247,0,0,1,1.247,1.247v5.614a1.247,1.247,0,0,1-1.247,1.247H273.747a1.247,1.247,0,0,1-1.247-1.247v-5.614a1.247,1.247,0,0,1,1.247-1.247H275V162.009a2.694,2.694,0,0,1,2.694-2.694h0a2.694,2.694,0,0,1,2.58,1.92l2.006,6.694a1.247,1.247,0,0,0,1.939.643l10.166-7.553a3.743,3.743,0,0,0,1.476-2.5l1.477-10.89a2.063,2.063,0,0,1,2.045-1.786h0a2.063,2.063,0,0,1,2.063,2.063v13.723a4.367,4.367,0,0,1-1.681,3.443l-12.1,9.433a3.743,3.743,0,0,0-1.441,2.951V179.6" transform="translate(-239.442 -131.286)" fill="none" stroke="#000" stroke-linecap="round" stroke-linejoin="round" stroke-miterlimit="10" stroke-width="1"/>
        <path id="Trazado_1045961" data-name="Trazado 1045961" d="M475.248,122V118.11a1.863,1.863,0,0,0-1.863-1.863h0a1.863,1.863,0,0,0-1.853,1.666l-.453,4.265" transform="translate(-413.248 -105.383)" fill="none" stroke="#000" stroke-linecap="round" stroke-linejoin="round" stroke-miterlimit="10" stroke-width="1"/>
      </g>
    </g>
  </g>
</svg>
