<svg xmlns="http://www.w3.org/2000/svg" xmlns:xlink="http://www.w3.org/1999/xlink" width="103" height="103" viewBox="0 0 103 103">
  <defs>
    <filter id="Trazado_982547" x="0" y="0" width="103" height="103" filterUnits="userSpaceOnUse">
      <feOffset dy="3" input="SourceAlpha"/>
      <feGaussianBlur stdDeviation="3" result="blur"/>
      <feFlood flood-opacity="0.161"/>
      <feComposite operator="in" in2="blur"/>
      <feComposite in="SourceGraphic"/>
    </filter>
  </defs>
  <g id="Grupo_1201780" data-name="Grupo 1201780" transform="translate(-191 -1293.384)">
    <g id="Grupo_1201663" data-name="Grupo 1201663" transform="translate(-1025 378.884)">
      <g id="Grupo_1201328" data-name="Grupo 1201328" transform="translate(1225 920.5)">
        <g id="Grupo_1172010" data-name="Grupo 1172010">
          <g id="Grupo_1171046" data-name="Grupo 1171046">
            <g id="Grupo_1148525" data-name="Grupo 1148525">
              <g transform="matrix(1, 0, 0, 1, -9, -6)" filter="url(#Trazado_982547)">
                <g id="Trazado_982547-2" data-name="Trazado 982547" transform="translate(9 6)" fill="#fdfbec">
                  <path d="M 42.5 83.5 C 36.96437835693359 83.5 31.59512901306152 82.41617584228516 26.54141235351562 80.27863311767578 C 21.65934181213379 78.21369171142578 17.27447128295898 75.25723266601562 13.50862312316895 71.49137878417969 C 9.742764472961426 67.72553253173828 6.786305904388428 63.34066009521484 4.721364498138428 58.45858764648438 C 2.583823442459106 53.40486907958984 1.5 48.03562164306641 1.5 42.5 C 1.5 36.96437835693359 2.583823442459106 31.59512901306152 4.721364498138428 26.54141235351562 C 6.786305904388428 21.65934181213379 9.742764472961426 17.27448272705078 13.50862312316895 13.50862312316895 C 17.27447128295898 9.742776870727539 21.65934181213379 6.786305904388428 26.54141235351562 4.721364498138428 C 31.59512901306152 2.583823442459106 36.96437835693359 1.5 42.5 1.5 C 48.03562164306641 1.5 53.40486907958984 2.583823442459106 58.45858764648438 4.721364498138428 C 63.34066009521484 6.786305904388428 67.72553253173828 9.742776870727539 71.49137878417969 13.50862312316895 C 75.25723266601562 17.27448272705078 78.21369171142578 21.65934181213379 80.27863311767578 26.54141235351562 C 82.41617584228516 31.59512901306152 83.5 36.96437835693359 83.5 42.5 C 83.5 48.03562164306641 82.41617584228516 53.40486907958984 80.27863311767578 58.45858764648438 C 78.21369171142578 63.34066009521484 75.25723266601562 67.72553253173828 71.49137878417969 71.49137878417969 C 67.72553253173828 75.25723266601562 63.34066009521484 78.21369171142578 58.45858764648438 80.27863311767578 C 53.40486907958984 82.41617584228516 48.03562164306641 83.5 42.5 83.5 Z" stroke="none"/>
                  <path d="M 42.5 3 C 37.16621398925781 3 31.99356079101562 4.043960571289062 27.125732421875 6.102882385253906 C 22.42246627807617 8.092185974121094 18.19785308837891 10.94070434570312 14.56928253173828 14.56928253173828 C 10.94070434570312 18.19785308837891 8.092185974121094 22.42246627807617 6.102882385253906 27.125732421875 C 4.043960571289062 31.99356079101562 3 37.16621398925781 3 42.5 C 3 47.83378601074219 4.043960571289062 53.00643920898438 6.102882385253906 57.87425231933594 C 8.092185974121094 62.57753372192383 10.94070434570312 66.80213165283203 14.56928253173828 70.43071746826172 C 18.19786834716797 74.05929565429688 22.42246627807617 76.90781402587891 27.125732421875 78.89711761474609 C 31.99356079101562 80.95603942871094 37.16621398925781 82 42.5 82 C 47.83378601074219 82 53.00642395019531 80.95603942871094 57.87425231933594 78.89711761474609 C 62.57753372192383 76.90781402587891 66.80213165283203 74.05929565429688 70.43071746826172 70.43071746826172 C 74.05929565429688 66.80213165283203 76.90781402587891 62.57753372192383 78.89711761474609 57.87425231933594 C 80.95603942871094 53.00642395019531 82 47.83378601074219 82 42.5 C 82 37.16621398925781 80.95603942871094 31.99356079101562 78.89711761474609 27.125732421875 C 76.90781402587891 22.42246627807617 74.05929565429688 18.19786834716797 70.43071746826172 14.56928253173828 C 66.80213165283203 10.94070434570312 62.57753372192383 8.092185974121094 57.87425231933594 6.102882385253906 C 53.00643920898438 4.043960571289062 47.83378601074219 3 42.5 3 M 42.5 0 C 65.97209167480469 0 85 19.02789306640625 85 42.5 C 85 65.97209167480469 65.97209167480469 85 42.5 85 C 19.02789306640625 85 0 65.97209167480469 0 42.5 C 0 19.02789306640625 19.02789306640625 0 42.5 0 Z" stroke="none" fill="#83793c"/>
                </g>
              </g>
            </g>
          </g>
        </g>
      </g>
    </g>
    <g id="teacher_360452" transform="translate(217.193 1310.463)">
      <circle id="Elipse_12464" data-name="Elipse 12464" cx="7.015" cy="7.015" r="7.015" transform="translate(4.397 9.773)" fill="#1990df"/>
      <rect id="Rect치ngulo_417532" data-name="Rect치ngulo 417532" width="20.073" height="13.492" transform="translate(1.038 34.786)" fill="#1990e0"/>
      <rect id="Rect치ngulo_417533" data-name="Rect치ngulo 417533" width="20.073" height="10.94" transform="translate(1.038 34.786)" fill="#ffefc6"/>
      <path id="Trazado_1045745" data-name="Trazado 1045745" d="M122.8,312.339v2.012a1.665,1.665,0,0,1-1.025,1.537l-6.648,2.77a4.079,4.079,0,0,0-2.319,3.7v8.017h28.31v-8.017a4.08,4.08,0,0,0-2.319-3.7l-6.648-2.77a1.665,1.665,0,0,1-1.025-1.537v-2.012Z" transform="translate(-101.658 -275.349)" fill="#febba0"/>
      <path id="Trazado_1045746" data-name="Trazado 1045746" d="M138.8,339.977l-6.648-2.77a1.664,1.664,0,0,1-.989-1.2,4.957,4.957,0,0,1-8.4-.012,1.665,1.665,0,0,1-.991,1.211l-6.648,2.77a4.079,4.079,0,0,0-2.319,3.7v8.017h28.31v-8.017A4.08,4.08,0,0,0,138.8,339.977Z" transform="translate(-101.658 -296.667)" fill="#ecebed"/>
      <g id="Grupo_1201779" data-name="Grupo 1201779" transform="translate(19.958 39.329)">
        <path id="Trazado_1045747" data-name="Trazado 1045747" d="M203.042,336a1.665,1.665,0,0,1-.991,1.211l-.161.067,1.928,5.4,3.426-4.351A4.953,4.953,0,0,1,203.042,336Z" transform="translate(-201.89 -335.996)" fill="#dedde1"/>
        <path id="Trazado_1045748" data-name="Trazado 1045748" d="M260.255,336a1.665,1.665,0,0,0,.992,1.211l.161.067-1.928,5.4-3.426-4.351A4.953,4.953,0,0,0,260.255,336Z" transform="translate(-250.7 -335.996)" fill="#dedde1"/>
      </g>
      <path id="Trazado_1045749" data-name="Trazado 1045749" d="M159.459,80.357v-3.01a9.278,9.278,0,1,0-18.556,0h-.036v3.01a2.314,2.314,0,0,0,0,4.628v1.727a4.538,4.538,0,0,0,1.9,3.464l5.593,3.2a3.21,3.21,0,0,0,3.612,0l5.576-3.2a4.554,4.554,0,0,0,1.914-3.464V84.984a2.314,2.314,0,1,0,0-4.628Z" transform="translate(-124.857 -55.226)" fill="#febba0"/>
      <path id="Trazado_1045750" data-name="Trazado 1045750" d="M163.677,27.622c-1.75-2.23-3.6-2.706-4.976-2.038a7.907,7.907,0,0,0-5.449-1.861,9.126,9.126,0,0,0-9.529,8.925,14.767,14.767,0,0,0,1.8,7.338s.672-4.714,5.287-4.714a7.7,7.7,0,0,0,6.242-2.728c.551,1.437,3.221,2.04,4.27,2.967a12.392,12.392,0,0,1,2.793,3.271S167.388,32.35,163.677,27.622Z" transform="translate(-129.515 -15.264)" fill="#fbc45e"/>
      <path id="Trazado_1045751" data-name="Trazado 1045751" d="M433.684,86.088a2.175,2.175,0,0,0,2.169,2.169h0a2.175,2.175,0,0,0,2.169-2.169L437.661,50.4a1.813,1.813,0,0,0-1.808-1.808h0a1.813,1.813,0,0,0-1.808,1.808Z" transform="translate(-390.813 -37.675)" fill="#ffcdba"/>
      <path id="Trazado_1045752" data-name="Trazado 1045752" d="M433.684,343.146a2.169,2.169,0,0,0,4.338,0l-.094-9.3h-4.15Z" transform="translate(-390.813 -294.733)" fill="#d56b5d"/>
      <path id="Trazado_1045753" data-name="Trazado 1045753" d="M35.379,311.211H32.038a1.033,1.033,0,1,1,0-2.066h3.341a1.033,1.033,0,0,1,0,2.066Z" transform="translate(-27.94 -272.471)"/>
      <path id="Trazado_1045754" data-name="Trazado 1045754" d="M35.379,337.074H32.038a1.033,1.033,0,1,1,0-2.066h3.341a1.033,1.033,0,0,1,0,2.066Z" transform="translate(-27.94 -295.777)"/>
      <path id="Trazado_1045755" data-name="Trazado 1045755" d="M35.379,362.936H32.038a1.033,1.033,0,0,1,0-2.066h3.341a1.033,1.033,0,0,1,0,2.066Z" transform="translate(-27.94 -319.082)"/>
      <path id="Trazado_1045756" data-name="Trazado 1045756" d="M136.57,311.211h-1.127a1.033,1.033,0,1,1,0-2.066h1.127a1.033,1.033,0,1,1,0,2.066Z" transform="translate(-121.123 -272.471)"/>
      <path id="Trazado_1045757" data-name="Trazado 1045757" d="M136.494,337.074h-1.05a1.033,1.033,0,1,1,0-2.066h1.05a1.033,1.033,0,1,1,0,2.066Z" transform="translate(-121.124 -295.777)"/>
      <path id="Trazado_1045758" data-name="Trazado 1045758" d="M1.046,486.381H1.033a1.033,1.033,0,0,1,0-2.066h.014a1.033,1.033,0,0,1,0,2.066Z" transform="translate(0 -430.324)"/>
      <path id="Trazado_1045759" data-name="Trazado 1045759" d="M492.011,486.381H492a1.033,1.033,0,1,1,0-2.066h.014a1.033,1.033,0,0,1,0,2.066Z" transform="translate(-442.431 -430.324)"/>
      <path id="Trazado_1045760" data-name="Trazado 1045760" d="M283.581,207.636a1.155,1.155,0,1,1,1.155-1.155A1.156,1.156,0,0,1,283.581,207.636Z" transform="translate(-254.507 -178.915)"/>
      <path id="Trazado_1045761" data-name="Trazado 1045761" d="M207.369,207.636a1.155,1.155,0,1,1,1.155-1.155A1.156,1.156,0,0,1,207.369,207.636Z" transform="translate(-185.829 -178.915)"/>
      <path id="Trazado_1045762" data-name="Trazado 1045762" d="M237.426,257.633a2.045,2.045,0,0,1-2.042-2.042,1.033,1.033,0,0,1,1.033-1.033h2.019a1.033,1.033,0,0,1,1.033,1.033A2.045,2.045,0,0,1,237.426,257.633Z" transform="translate(-212.115 -223.28)"/>
      <path id="Trazado_1045763" data-name="Trazado 1045763" d="M287.044,441.451h-.014a1.033,1.033,0,1,1,0-2.066h.014a1.033,1.033,0,0,1,0,2.066Z" transform="translate(-257.726 -389.836)"/>
      <path id="Trazado_1045764" data-name="Trazado 1045764" d="M324.847,441.451h-3.875a1.033,1.033,0,1,1,0-2.066h3.875a1.033,1.033,0,0,1,0,2.066Z" transform="translate(-288.312 -389.836)"/>
      <path id="Trazado_1045765" data-name="Trazado 1045765" d="M205.76,441.451h-.014a1.033,1.033,0,1,1,0-2.066h.014a1.033,1.033,0,1,1,0,2.066Z" transform="translate(-184.477 -389.836)"/>
      <path id="Trazado_1045766" data-name="Trazado 1045766" d="M136.617,441.451h-3.875a1.033,1.033,0,1,1,0-2.066h3.875a1.033,1.033,0,1,1,0,2.066Z" transform="translate(-118.689 -389.836)"/>
      <path id="Trazado_1045767" data-name="Trazado 1045767" d="M429.638,76.661l-.362-35.683a2.841,2.841,0,0,0-5.681,0l-.362,35.683v.01a3.2,3.2,0,0,0,6.4,0S429.638,76.665,429.638,76.661Zm-3.977-35.677a.775.775,0,0,1,1.549,0V41l.257,25.348H425.4L425.661,41Zm.775,36.824a1.138,1.138,0,0,1-1.136-1.132l.084-8.268h2.1l.084,8.268A1.138,1.138,0,0,1,426.436,77.808Z" transform="translate(-381.396 -28.259)"/>
      <path id="Trazado_1045768" data-name="Trazado 1045768" d="M46.276,53.991H40.54V47.006a5.09,5.09,0,0,0-2.955-4.651l-6.648-2.77A.631.631,0,0,1,30.549,39V37.394l2.7-1.548.055-.034a5.578,5.578,0,0,0,2.375-4.247c0-.026,0-.052,0-.079v-.858a3.347,3.347,0,0,0,0-6.367v-.513c.589-1.282,3.036-7.316-.662-12.028-1.709-2.178-3.759-3.1-5.6-2.573a9.13,9.13,0,0,0-5.633-1.721,10.594,10.594,0,0,0-7.521,2.905,8.032,8.032,0,0,0-9.713.085L4.854,8.721h0L3.219,7.087A1.033,1.033,0,0,0,1.758,8.548l.937.937a11.409,11.409,0,0,0,7.73,18.664v1.568h-.317a1.033,1.033,0,0,0,0,2.066h2.7a1.033,1.033,0,1,0,0-2.066h-.317v-1.57q.145-.013.29-.03a3.357,3.357,0,0,0,2.243,2.511v.858c0,.026,0,.053,0,.079a6.052,6.052,0,0,0,.588,2.189H1.084A1.033,1.033,0,0,0,.051,34.786V48.278a1.033,1.033,0,0,0,1.033,1.033h9.081v4.68H4.439a1.033,1.033,0,0,0,0,2.066H46.276a1.033,1.033,0,0,0,0-2.066ZM23.783,9.492a6.84,6.84,0,0,1,4.778,1.614,1.033,1.033,0,0,0,1.123.144c1.06-.516,2.448.137,3.711,1.746h0c2.17,2.764,1.6,6.291.979,8.348a17.536,17.536,0,0,0-1.835-1.871,8.5,8.5,0,0,0-1.892-1.119c-.846-.412-1.9-.925-2.1-1.444a1.033,1.033,0,0,0-1.746-.3,6.71,6.71,0,0,1-5.46,2.37A5.917,5.917,0,0,0,16.1,21.813c-.036.057-.071.115-.105.172a15.155,15.155,0,0,1-.7-4.6A8.116,8.116,0,0,1,23.783,9.492ZM29.528,23.4a4.292,4.292,0,0,0-4.177,3.333,4.282,4.282,0,0,0-7.438-1.824l-.761-.385a4.278,4.278,0,0,1,4.191-3.486,8.831,8.831,0,0,0,6.143-2.188,9.854,9.854,0,0,0,2.256,1.358,7.542,7.542,0,0,1,1.429.81,12.917,12.917,0,0,1,2.445,2.774V24.5l-.818.421A4.277,4.277,0,0,0,29.528,23.4Zm2.219,4.285a2.219,2.219,0,1,1-2.219-2.219A2.222,2.222,0,0,1,31.748,27.688Zm-8.355,0a2.219,2.219,0,1,1-2.219-2.219A2.222,2.222,0,0,1,23.393,27.688ZM14.93,11.917a9.813,9.813,0,0,0-1.709,5.468,17.258,17.258,0,0,0,.69,4.859A5.983,5.983,0,1,1,14.93,11.917ZM13.043,25.993a9.4,9.4,0,0,1-1.579.135h-.013A9.34,9.34,0,0,1,4.164,10.953l.924.924a8.045,8.045,0,0,0,9.535,12.309c.03.068.06.134.09.2A3.369,3.369,0,0,0,13.043,25.993Zm1.733,1.452a1.282,1.282,0,0,1,1.071-1.262l1.144.578a4.285,4.285,0,0,0,8.361,1.879,4.285,4.285,0,0,0,8.364-1.866l1.147-.591a1.28,1.28,0,0,1-.213,2.542,1.033,1.033,0,0,0-1.033,1.033v1.686a3.555,3.555,0,0,1-1.426,2.627l-5.546,3.18-.055.034a2.185,2.185,0,0,1-2.473,0l-.057-.035L18.5,34.071a3.5,3.5,0,0,1-1.408-2.627V29.758a1.033,1.033,0,0,0-1.033-1.033A1.282,1.282,0,0,1,14.775,27.445ZM12.23,35.819h5.1l.057,0,.049.03L20.156,37.4V39a.631.631,0,0,1-.389.584l-6.648,2.77a4.306,4.306,0,0,0-.889.5V35.819ZM10.165,47.007v.239H2.117v-.486h8.048v.248h0Zm0-2.314H2.117V35.819h8.048v8.874Zm14.16,9.3H12.23V47.006a3.062,3.062,0,0,1,1.684-2.744L19.4,41.978l1.562,4.376a1.033,1.033,0,0,0,1.784.292l1.581-2.009v9.353ZM21.269,41.078a5.936,5.936,0,0,0,2.2,1.308L22.276,43.9Zm.952-2.025c0-.017,0-.033,0-.05V38.58l.785.449a4.248,4.248,0,0,0,4.692,0l.784-.45V39c0,.021,0,.042,0,.063a3.919,3.919,0,0,1-6.265-.012Zm7.226,2.025L28.439,43.9l-1.192-1.514A5.943,5.943,0,0,0,29.447,41.077Zm9.028,12.913H26.39V44.637l1.582,2.009a1.033,1.033,0,0,0,1.784-.292l1.561-4.372,5.474,2.281a3.062,3.062,0,0,1,1.684,2.744v6.984Z" transform="translate(-0.046)"/>
    </g>
  </g>
</svg>
