<svg xmlns="http://www.w3.org/2000/svg" xmlns:xlink="http://www.w3.org/1999/xlink" width="113" height="113" viewBox="0 0 113 113">
  <defs>
    <filter id="Trazado_982547" x="0" y="0" width="113" height="113" filterUnits="userSpaceOnUse">
      <feOffset dy="3" input="SourceAlpha"/>
      <feGaussianBlur stdDeviation="3" result="blur"/>
      <feFlood flood-opacity="0.161"/>
      <feComposite operator="in" in2="blur"/>
      <feComposite in="SourceGraphic"/>
    </filter>
    <clipPath id="clip-path">
      <path id="path6093" d="M0-682.665H67.372v67.372H0Z" transform="translate(0 682.665)"/>
    </clipPath>
  </defs>
  <g id="Grupo_1201784" data-name="Grupo 1201784" transform="translate(-271 -2641.325)">
    <g id="Grupo_1201680" data-name="Grupo 1201680" transform="translate(0 1726.825)">
      <g id="Grupo_1201330" data-name="Grupo 1201330" transform="translate(280 920.5)">
        <g id="Grupo_1172010" data-name="Grupo 1172010">
          <g id="Grupo_1171046" data-name="Grupo 1171046">
            <g id="Grupo_1148525" data-name="Grupo 1148525">
              <g transform="matrix(1, 0, 0, 1, -9, -6)" filter="url(#Trazado_982547)">
                <g id="Trazado_982547-2" data-name="Trazado 982547" transform="translate(9 6)" fill="#fdfbec">
                  <path d="M 47.5 93.5 C 41.28937149047852 93.5 35.26533508300781 92.28397369384766 29.59518623352051 89.88570404052734 C 24.11771965026855 87.56893157958984 19.19813346862793 84.25196075439453 14.97309303283691 80.02691650390625 C 10.74804019927979 75.80186462402344 7.431066513061523 70.88229370117188 5.114293098449707 65.40481567382812 C 2.716026782989502 59.73468017578125 1.5 53.71062850952148 1.5 47.5 C 1.5 41.28937149047852 2.716026782989502 35.26533508300781 5.114293098449707 29.59518623352051 C 7.431066513061523 24.11771965026855 10.74804019927979 19.19813346862793 14.97309303283691 14.97309303283691 C 19.19813346862793 10.74804019927979 24.11771965026855 7.431066513061523 29.59518623352051 5.114293098449707 C 35.26533508300781 2.716026782989502 41.28937149047852 1.5 47.5 1.5 C 53.71062850952148 1.5 59.73468017578125 2.716026782989502 65.40481567382812 5.114293098449707 C 70.88229370117188 7.431066513061523 75.80186462402344 10.74804019927979 80.02691650390625 14.97309303283691 C 84.25196075439453 19.19813346862793 87.56893157958984 24.11771965026855 89.88570404052734 29.59518623352051 C 92.28397369384766 35.26533508300781 93.5 41.28937149047852 93.5 47.5 C 93.5 53.71062850952148 92.28397369384766 59.73468017578125 89.88570404052734 65.40481567382812 C 87.56893157958984 70.88229370117188 84.25196075439453 75.80186462402344 80.02691650390625 80.02691650390625 C 75.80186462402344 84.25196075439453 70.88229370117188 87.56893157958984 65.40481567382812 89.88570404052734 C 59.73468017578125 92.28397369384766 53.71062850952148 93.5 47.5 93.5 Z" stroke="none"/>
                  <path d="M 47.5 3 C 41.49121475219727 3 35.66376876831055 4.176155090332031 30.17950439453125 6.495796203613281 C 24.88084411621094 8.736953735351562 20.12152099609375 11.94598388671875 16.03375244140625 16.03375244140625 C 11.94598388671875 20.12152099609375 8.736953735351562 24.88084411621094 6.495796203613281 30.17950439453125 C 4.176155090332031 35.66376876831055 3 41.49121475219727 3 47.5 C 3 53.50878524780273 4.176155090332031 59.33623123168945 6.495796203613281 64.82049560546875 C 8.736953735351562 70.11915588378906 11.94598388671875 74.87847900390625 16.03375244140625 78.96624755859375 C 20.12152099609375 83.05401611328125 24.88084411621094 86.26304626464844 30.17950439453125 88.50419616699219 C 35.66376876831055 90.82384490966797 41.49121475219727 92 47.5 92 C 53.50878524780273 92 59.33623123168945 90.82384490966797 64.82049560546875 88.50419616699219 C 70.11915588378906 86.26304626464844 74.87847900390625 83.05401611328125 78.96624755859375 78.96624755859375 C 83.05401611328125 74.87847900390625 86.26304626464844 70.11915588378906 88.50419616699219 64.82049560546875 C 90.82384490966797 59.33623123168945 92 53.50878524780273 92 47.5 C 92 41.49121475219727 90.82384490966797 35.66376876831055 88.50419616699219 30.17950439453125 C 86.26304626464844 24.88084411621094 83.05401611328125 20.12152099609375 78.96624755859375 16.03375244140625 C 74.87847900390625 11.94598388671875 70.11915588378906 8.736953735351562 64.82049560546875 6.495796203613281 C 59.33623123168945 4.176155090332031 53.50878524780273 3 47.5 3 M 47.5 0 C 73.7335205078125 0 95 21.2664794921875 95 47.5 C 95 73.7335205078125 73.7335205078125 95 47.5 95 C 21.2664794921875 95 0 73.7335205078125 0 47.5 C 0 21.2664794921875 21.2664794921875 0 47.5 0 Z" stroke="none" fill="#83793c"/>
                </g>
              </g>
            </g>
          </g>
        </g>
      </g>
    </g>
    <g id="g6087" transform="translate(293.814 3343.803)">
      <g id="g6089" transform="translate(0 -682.665)">
        <g id="g6091" clip-path="url(#clip-path)">
          <g id="g6097" transform="translate(0.987 6.647)">
            <path id="path6099" d="M-152.647-336.006h0a3.282,3.282,0,0,0,1.319-4.45l-2.786-5.134a25.741,25.741,0,0,0,3.3-6.882,29.559,29.559,0,0,0,.984-4.89,5.15,5.15,0,0,0-1.476-4.24l-11.2-11.2-6.857,6.857L-156.25-354.6l-3.053,9.154,5.222,9.038a1.068,1.068,0,0,0,1.434.4" transform="translate(169.361 372.798)" fill="#a54f3e"/>
          </g>
          <g id="g6101" transform="translate(0.987 6.647)">
            <path id="path6103" d="M0-62.623,13.111-51.285l-3.053,9.154,5.222,9.038a1.068,1.068,0,0,0,1.434.4,3.282,3.282,0,0,0,1.319-4.45l-2.786-5.134a25.74,25.74,0,0,0,3.3-6.882,29.545,29.545,0,0,0,.983-4.89,5.149,5.149,0,0,0-1.476-4.24l-11.2-11.2" transform="translate(0 69.48)" fill="none" stroke="#000" stroke-linecap="round" stroke-linejoin="round" stroke-miterlimit="10" stroke-width="1"/>
          </g>
          <g id="g6105" transform="translate(8.553 30.892)">
            <path id="path6107" d="M-55.3-18.084l-.866,2.921,2.786,5.134A3.282,3.282,0,0,1-54.7-5.578a1.068,1.068,0,0,1-1.434-.4l-5.222-9.038,1.495-5.043Z" transform="translate(61.352 20.064)" fill="#a54f3e"/>
          </g>
          <g id="g6109" transform="translate(14.087 37.877)">
            <path id="path6111" d="M0-67.924a1.068,1.068,0,0,0,1.122.064,3.282,3.282,0,0,0,1.319-4.45L.785-75.361" transform="translate(0 75.361)" fill="none" stroke="#000" stroke-linecap="round" stroke-linejoin="round" stroke-miterlimit="10" stroke-width="1"/>
          </g>
          <g id="g6113" transform="translate(5.716 23.085)">
            <path id="path6115" d="M-83.778-12.807l-4.731-1.4L-92.952.778l5.222,9.038a1.068,1.068,0,0,0,1.434.4,3.282,3.282,0,0,0,1.319-4.45L-87.763.636Z" transform="translate(92.952 14.209)" fill="#a54f3e"/>
          </g>
          <g id="g6117" transform="translate(5.716 23.085)">
            <path id="path6119" d="M-3.283-125.794l-.359,1.213,5.222,9.038a1.068,1.068,0,0,0,1.434.4h0a3.282,3.282,0,0,0,1.319-4.45l-2.786-5.134L5.53-138.165.8-139.568l-2.76,9.311" transform="translate(3.643 139.568)" fill="none" stroke="#000" stroke-linecap="round" stroke-linejoin="round" stroke-miterlimit="10" stroke-width="1"/>
          </g>
          <g id="g6121" transform="translate(8.419 19.662)">
            <path id="path6123" d="M-40.621-163.162l-4.219-6.76-.225-4.973a3.789,3.789,0,0,1,.958-2.694l2.185-2.448,1.134-.616a3.086,3.086,0,0,1,4.185,1.24c.932,1.8-.178,6.2-2.207,7.446-.194.119-.8.434-.8.434l2.07,3.814a3.674,3.674,0,0,1-1.477,4.981,1.212,1.212,0,0,1-1.606-.424" transform="translate(45.068 181.027)" fill="#bc5d4c"/>
          </g>
          <g id="g6125" transform="translate(8.419 19.648)">
            <path id="path6127" d="M-80.354-31.716c-.044,2.043-1.041,4.685-2.539,5.6-.194.119-.8.434-.8.434l2.07,3.814A3.674,3.674,0,0,1-83.1-16.886a1.212,1.212,0,0,1-1.607-.424l-4.219-6.76-.225-4.974a3.789,3.789,0,0,1,.958-2.694l2.185-2.448,1.851-1" transform="translate(89.152 35.189)" fill="none" stroke="#000" stroke-linecap="round" stroke-linejoin="round" stroke-miterlimit="10" stroke-width="1"/>
          </g>
          <g id="g6129" transform="translate(47.064 24.046)">
            <path id="path6131" d="M-26.021-1.183h0a3.282,3.282,0,0,0-1.319,4.45L-24.554,8.4a25.741,25.741,0,0,0-3.3,6.882,29.559,29.559,0,0,0-.984,4.89,5.15,5.15,0,0,0,1.476,4.24l10.954,10.954,6.857-6.857-12.869-11.1,3.053-9.154L-24.587-.779a1.068,1.068,0,0,0-1.434-.4" transform="translate(28.87 1.312)" fill="#6d3326"/>
          </g>
          <g id="g6133" transform="translate(47.064 24.046)">
            <path id="path6135" d="M-176.46-272.36l-12.869-11.1,3.053-9.154-5.222-9.038a1.068,1.068,0,0,0-1.434-.4,3.282,3.282,0,0,0-1.319,4.45l2.786,5.134a25.74,25.74,0,0,0-3.3,6.882,29.547,29.547,0,0,0-.983,4.89,5.15,5.15,0,0,0,1.476,4.24l10.954,10.954" transform="translate(195.782 302.182)" fill="none" stroke="#000" stroke-linecap="round" stroke-linejoin="round" stroke-miterlimit="10" stroke-width="1"/>
          </g>
          <g id="g6137" transform="translate(50.688 22.107)">
            <path id="path6139" d="M-21.174-115.392l.866-2.921-2.786-5.134a3.282,3.282,0,0,1,1.319-4.451,1.068,1.068,0,0,1,1.434.4l5.222,9.038-1.495,5.043Z" transform="translate(23.492 128.027)" fill="#6d3326"/>
          </g>
          <g id="g6141" transform="translate(50.688 22.106)">
            <path id="path6143" d="M-25.928-1.763a1.068,1.068,0,0,0-1.122-.064,3.282,3.282,0,0,0-1.319,4.45l1.656,3.051" transform="translate(28.767 1.956)" fill="none" stroke="#000" stroke-linecap="round" stroke-linejoin="round" stroke-miterlimit="10" stroke-width="1"/>
          </g>
          <g id="g6145" transform="translate(52.725 19.97)">
            <path id="path6147" d="M0-211.485l4.731,1.4L9.173-225.07l-5.222-9.038a1.068,1.068,0,0,0-1.434-.4,3.282,3.282,0,0,0-1.319,4.45l2.786,5.134Z" transform="translate(0 234.642)" fill="#6d3326"/>
          </g>
          <g id="g6149" transform="translate(52.725 19.97)">
            <path id="path6151" d="M0-211.485l4.731,1.4L9.173-225.07l-5.222-9.038a1.068,1.068,0,0,0-1.434-.4,3.282,3.282,0,0,0-1.319,4.45l2.786,5.134Z" transform="translate(0 234.642)" fill="none" stroke="#000" stroke-linecap="round" stroke-linejoin="round" stroke-miterlimit="10" stroke-width="1"/>
          </g>
          <g id="g6153" transform="translate(50.395 29.515)">
            <path id="path6155" d="M-39.746-5.21l4.219,6.76.225,4.973a3.788,3.788,0,0,1-.958,2.694l-2.185,2.448-1.134.616a3.086,3.086,0,0,1-4.185-1.24c-.932-1.8.178-6.2,2.207-7.446.194-.119.8-.434.8-.434l-2.07-3.814a3.674,3.674,0,0,1,1.477-4.981,1.212,1.212,0,0,1,1.606.424" transform="translate(44.099 5.781)" fill="#883f2d"/>
          </g>
          <g id="g6157" transform="translate(50.397 29.515)">
            <path id="path6159" d="M0-136.788c.044-2.043,1.041-4.685,2.539-5.6.194-.119.8-.434.8-.434l-2.07-3.814a3.674,3.674,0,0,1,1.476-4.981,1.212,1.212,0,0,1,1.607.424l4.219,6.76.225,4.974a3.788,3.788,0,0,1-.958,2.694L5.651-134.32l-1.851,1" transform="translate(0 151.766)" fill="none" stroke="#000" stroke-linecap="round" stroke-linejoin="round" stroke-miterlimit="10" stroke-width="1"/>
          </g>
          <g id="g6161" transform="translate(6.646 46.822)">
            <path id="path6163" d="M-336.007-26.022h0a3.282,3.282,0,0,0-4.45-1.319l-5.134,2.786a25.737,25.737,0,0,0-6.882-3.3,29.575,29.575,0,0,0-4.89-.984,5.15,5.15,0,0,0-4.24,1.476l-11.2,11.2,6.857,6.857,11.338-13.11,9.154,3.052,9.038-5.222a1.068,1.068,0,0,0,.4-1.434" transform="translate(372.799 28.871)" fill="#ffcebf"/>
          </g>
          <g id="g6165" transform="translate(6.647 46.822)">
            <path id="path6167" d="M-62.622-178.667l11.338-13.11,9.154,3.052,9.038-5.222a1.068,1.068,0,0,0,.4-1.434,3.282,3.282,0,0,0-4.45-1.319l-5.134,2.786a25.737,25.737,0,0,0-6.882-3.3,29.578,29.578,0,0,0-4.89-.984,5.15,5.15,0,0,0-4.24,1.476l-11.2,11.2" transform="translate(69.478 198.231)" fill="none" stroke="#000" stroke-linecap="round" stroke-linejoin="round" stroke-miterlimit="10" stroke-width="1"/>
          </g>
          <g id="g6169" transform="translate(30.892 50.446)">
            <path id="path6171" d="M-18.084-21.175l2.921.866,5.134-2.786a3.282,3.282,0,0,1,4.45,1.319,1.068,1.068,0,0,1-.4,1.434l-9.038,5.222-5.043-1.495Z" transform="translate(20.064 23.494)" fill="#ffcebf"/>
          </g>
          <g id="g6173" transform="translate(37.877 50.446)">
            <path id="path6175" d="M-67.924-25.928a1.068,1.068,0,0,0,.063-1.122,3.282,3.282,0,0,0-4.45-1.319l-3.051,1.656" transform="translate(75.361 28.767)" fill="none" stroke="#000" stroke-linecap="round" stroke-linejoin="round" stroke-miterlimit="10" stroke-width="1"/>
          </g>
          <g id="g6177" transform="translate(23.085 52.483)">
            <path id="path6179" d="M-12.807,0l-1.4,4.731L.778,9.173,9.816,3.951a1.068,1.068,0,0,0,.4-1.434A3.282,3.282,0,0,0,5.77,1.2L.636,3.984Z" transform="translate(14.209)" fill="#ffcebf"/>
          </g>
          <g id="g6181" transform="translate(23.085 52.483)">
            <path id="path6183" d="M-12.807,0l-1.4,4.731L.778,9.173,9.816,3.951a1.068,1.068,0,0,0,.4-1.434A3.282,3.282,0,0,0,5.77,1.2L.636,3.984Z" transform="translate(14.209)" fill="none" stroke="#000" stroke-linecap="round" stroke-linejoin="round" stroke-miterlimit="10" stroke-width="1"/>
          </g>
          <g id="g6185" transform="translate(19.662 50.154)">
            <path id="path6187" d="M-163.162-39.746l-6.76,4.219-4.974.225a3.788,3.788,0,0,1-2.694-.958l-2.448-2.185-.616-1.134a3.086,3.086,0,0,1,1.24-4.185c1.8-.932,6.2.178,7.446,2.207.119.194.433.8.433.8l3.814-2.07a3.674,3.674,0,0,1,4.981,1.476,1.212,1.212,0,0,1-.424,1.606" transform="translate(181.027 44.099)" fill="#ffdfcf"/>
          </g>
          <g id="g6189" transform="translate(19.648 50.155)">
            <path id="path6191" d="M-31.715,0c2.043.044,4.685,1.041,5.6,2.539.119.194.433.8.433.8l3.814-2.07a3.674,3.674,0,0,1,4.981,1.476,1.212,1.212,0,0,1-.424,1.606l-6.76,4.219-4.974.225a3.789,3.789,0,0,1-2.694-.958l-2.448-2.185-1-1.851" transform="translate(35.188)" fill="none" stroke="#000" stroke-linecap="round" stroke-linejoin="round" stroke-miterlimit="10" stroke-width="1"/>
          </g>
          <g id="g6193" transform="translate(24.046 0.987)">
            <path id="path6195" d="M-1.183-150.439h0a3.282,3.282,0,0,0,4.45,1.319L8.4-151.906a25.737,25.737,0,0,0,6.882,3.3,29.563,29.563,0,0,0,4.89.984,5.15,5.15,0,0,0,4.24-1.476l10.954-10.954-6.857-6.857-11.1,12.869L8.26-157.1l-9.038,5.222a1.068,1.068,0,0,0-.4,1.434" transform="translate(1.312 166.912)" fill="#fba08d"/>
          </g>
          <g id="g6197" transform="translate(24.046 0.987)">
            <path id="path6199" d="M-272.36,0l-11.1,12.869-9.154-3.052-9.038,5.222a1.068,1.068,0,0,0-.4,1.434,3.282,3.282,0,0,0,4.45,1.319l5.134-2.786a25.712,25.712,0,0,0,4.82,2.573" transform="translate(302.182)" fill="none" stroke="#000" stroke-linecap="round" stroke-linejoin="round" stroke-miterlimit="10" stroke-width="1"/>
          </g>
          <g id="g6201" transform="translate(43.04 7.844)">
            <path id="path6203" d="M0-109.923c.912.182,1.761.308,2.492.394a5.15,5.15,0,0,0,4.24-1.476L17.686-121.96" transform="translate(0 121.96)" fill="none" stroke="#000" stroke-linecap="round" stroke-linejoin="round" stroke-miterlimit="10" stroke-width="1"/>
          </g>
          <g id="g6205" transform="translate(22.107 8.311)">
            <path id="path6207" d="M-115.392-55.3l-2.921-.866-5.134,2.786A3.282,3.282,0,0,1-127.9-54.7a1.068,1.068,0,0,1,.4-1.434l9.038-5.222,5.043,1.495Z" transform="translate(128.027 61.352)" fill="#fba08d"/>
          </g>
          <g id="g6209" transform="translate(22.107 13.845)">
            <path id="path6211" d="M-1.762,0a1.068,1.068,0,0,0-.063,1.122,3.282,3.282,0,0,0,4.45,1.319L5.675.785" transform="translate(1.955)" fill="none" stroke="#000" stroke-linecap="round" stroke-linejoin="round" stroke-miterlimit="10" stroke-width="1"/>
          </g>
          <g id="g6213" transform="translate(19.97 5.474)">
            <path id="path6215" d="M-211.486-83.778l1.4-4.731-14.987-4.442-9.038,5.222a1.068,1.068,0,0,0-.4,1.434,3.282,3.282,0,0,0,4.45,1.319l5.134-2.786Z" transform="translate(234.642 92.952)" fill="#fba08d"/>
          </g>
          <g id="g6217" transform="translate(19.97 5.474)">
            <path id="path6219" d="M-211.486-83.778l1.4-4.731-14.987-4.442-9.038,5.222a1.068,1.068,0,0,0-.4,1.434,3.282,3.282,0,0,0,4.45,1.319l5.134-2.786Z" transform="translate(234.642 92.952)" fill="none" stroke="#000" stroke-linecap="round" stroke-linejoin="round" stroke-miterlimit="10" stroke-width="1"/>
          </g>
          <g id="g6221" transform="translate(29.515 8.177)">
            <path id="path6223" d="M-5.21-40.621l6.76-4.219,4.974-.225a3.788,3.788,0,0,1,2.694.958l2.448,2.185.616,1.134A3.086,3.086,0,0,1,11.04-36.6c-1.8.932-6.2-.178-7.446-2.207-.119-.194-.433-.8-.433-.8l-3.814,2.07a3.674,3.674,0,0,1-4.981-1.476,1.212,1.212,0,0,1,.424-1.606" transform="translate(5.781 45.069)" fill="#ffb09e"/>
          </g>
          <g id="g6225" transform="translate(29.516 8.177)">
            <path id="path6227" d="M-136.788-80.354c-2.043-.044-4.685-1.041-5.6-2.539-.119-.194-.433-.8-.433-.8l-3.814,2.07a3.674,3.674,0,0,1-4.981-1.476A1.212,1.212,0,0,1-151.2-84.7l6.76-4.219,4.974-.225a3.789,3.789,0,0,1,2.694.958l2.448,2.185,1,1.851" transform="translate(151.766 89.152)" fill="none" stroke="#000" stroke-linecap="round" stroke-linejoin="round" stroke-miterlimit="10" stroke-width="1"/>
          </g>
          <g id="g6229" transform="translate(24.368 26.703)">
            <path id="path6231" d="M-155.631-85.1a5.461,5.461,0,0,0,0-7.718,5.461,5.461,0,0,0-7.718,0,5.461,5.461,0,0,0-7.718,0,5.461,5.461,0,0,0,0,7.718l6.982,6.982a1.048,1.048,0,0,0,1.482,0Z" transform="translate(172.672 94.414)" fill="#fe76a8"/>
          </g>
          <g id="g6233" transform="translate(31.522 26.706)">
            <path id="path6235" d="M-90.3-85.07l-6.982,6.982a1.048,1.048,0,0,1-1.482,0l-1.423-1.423,6.814-6.815c2.128-2.133,2.691-5.023.56-7.154a5.467,5.467,0,0,0-1.2-.906,5.441,5.441,0,0,1,3.7,1.6A5.461,5.461,0,0,1-90.3-85.07" transform="translate(100.188 94.385)" fill="#ff5795"/>
          </g>
          <g id="g6237" transform="translate(24.368 26.703)">
            <path id="path6239" d="M-12.924-83.37a5.461,5.461,0,0,1,.184-7.529,5.461,5.461,0,0,1,7.718,0,5.461,5.461,0,0,1,7.718,0,5.461,5.461,0,0,1,0,7.718L-4.281-76.2a1.048,1.048,0,0,1-1.482,0l-3.873-3.873" transform="translate(14.34 92.499)" fill="none" stroke="#000" stroke-linecap="round" stroke-linejoin="round" stroke-miterlimit="10" stroke-width="1"/>
          </g>
        </g>
      </g>
    </g>
  </g>
</svg>
